<?xml version="1.0" encoding="UTF-8" standalone="no"?><!DOCTYPE svg PUBLIC "-//W3C//DTD SVG 1.1//EN" "http://www.w3.org/Graphics/SVG/1.1/DTD/svg11.dtd"><svg width="100%" height="100%" viewBox="0 0 487 223" version="1.1" xmlns="http://www.w3.org/2000/svg" xmlns:xlink="http://www.w3.org/1999/xlink" xml:space="preserve" style="fill-rule:evenodd;clip-rule:evenodd;stroke-miterlimit:10;"><path d="M176.093,1.84l207.791,0.861l0,152.871l-43.096,0l0,12.573l-113.078,0l0,-12.573l-51.617,0l0,-153.732Z" style="fill:#939498;fill-rule:nonzero;"/><rect x="179.14" y="58.713" width="8.288" height="40.267" style="fill:#7b479c;fill-rule:nonzero;"/><rect x="179.14" y="101.621" width="8.288" height="38.727" style="fill:#3c884b;fill-rule:nonzero;"/><rect x="218.444" y="98.98" width="7.699" height="32.346" style="fill:#ce3135;fill-rule:nonzero;"/><path d="M212.949,163.494c-0.116,-0.462 -0.4,-0.774 -0.848,-0.937c-0.141,-0.051 -0.289,-0.069 -0.439,-0.069l-8.217,0c-0.374,0 -0.693,0.133 -0.953,0.402c-0.189,0.197 -0.306,0.432 -0.342,0.705c-0.01,0.07 -0.016,0.142 -0.016,0.213c0,2.739 0,5.476 -0.001,8.213c0,0.377 0.132,0.7 0.404,0.96c0.196,0.189 0.431,0.303 0.701,0.341c0.027,0.005 0.055,0.011 0.082,0.017l8.477,0c0.06,-0.012 0.121,-0.02 0.18,-0.035c0.487,-0.124 0.807,-0.427 0.955,-0.909c0.022,-0.071 0.029,-0.148 0.043,-0.221c0.001,-0.005 0.006,-0.01 0.008,-0.014l0,-8.485c-0.011,-0.061 -0.019,-0.121 -0.034,-0.181" style="fill:#d3d3d5;fill-rule:nonzero;"/><path d="M211.041,171.148l-1.42,0l0,-1.999l-2.158,0l0,-1.897l-2.261,0l0,-2l-1.126,0l0,-0.574l1.7,0l0,1.999l2.262,0l0,1.898l2.158,0l0,1.998l0.845,0l0,0.575Z" style="fill:#231b3d;fill-rule:nonzero;"/><path d="M354.326,163.494c-0.116,-0.462 -0.4,-0.774 -0.848,-0.937c-0.14,-0.051 -0.289,-0.069 -0.439,-0.069l-8.217,0c-0.374,0 -0.693,0.133 -0.952,0.402c-0.19,0.197 -0.307,0.432 -0.343,0.705c-0.01,0.07 -0.015,0.142 -0.015,0.213c-0.001,2.739 -0.001,5.476 -0.001,8.213c0,0.377 0.131,0.7 0.403,0.96c0.196,0.189 0.431,0.303 0.701,0.341c0.027,0.005 0.055,0.011 0.082,0.017l8.477,0c0.06,-0.012 0.121,-0.02 0.18,-0.035c0.488,-0.124 0.808,-0.427 0.955,-0.909c0.022,-0.071 0.03,-0.148 0.043,-0.221c0.001,-0.005 0.006,-0.01 0.008,-0.014l0,-8.485c-0.011,-0.061 -0.019,-0.121 -0.034,-0.181" style="fill:#d3d3d5;fill-rule:nonzero;"/><path d="M352.418,171.148l-1.42,0l0,-1.999l-2.158,0l0,-1.897l-2.261,0l0,-2l-1.126,0l0,-0.574l1.7,0l0,1.999l2.262,0l0,1.898l2.158,0l0,1.998l0.845,0l0,0.575Z" style="fill:#231b3d;fill-rule:nonzero;"/><rect x="229.162" y="157.878" width="27.432" height="9.095" style="fill:#f1d749;fill-rule:nonzero;"/><rect x="257.62" y="157.878" width="81.854" height="9.095" style="fill:#d3d3d5;fill-rule:nonzero;"/><rect x="229.853" y="5.026" width="108.741" height="24.937" style="fill:#d3d3d5;fill-rule:nonzero;"/><rect x="371.82" y="60.034" width="9.021" height="41.587" style="fill:#8bc642;fill-rule:nonzero;"/><path d="M243.209,166.345l-0.087,0c-2.062,0 -3.734,-1.672 -3.734,-3.733l0,-0.088c0,-2.062 1.672,-3.734 3.734,-3.734l0.087,0c2.062,0 3.734,1.672 3.734,3.734l0,0.088c0,2.061 -1.672,3.733 -3.734,3.733" style="fill:#231f20;fill-rule:nonzero;"/><path d="M242.779,164.031l0,-0.532l0.483,0l0.001,0.532l-0.484,0Zm0.104,-0.716l-0.124,-1.409l-0.001,-0.651l0.524,0l0,0.651l-0.124,1.409l-0.275,0Z" style="fill:#fff;fill-rule:nonzero;"/><path d="M340.112,5.025l0,149.236" style="fill:none;stroke:#d3d3d5;stroke-width:1px;"/><path d="M228.157,5.025l0,149.236" style="fill:none;stroke:#d3d3d5;stroke-width:1px;"/><rect x="338.594" y="61.041" width="2.632" height="12.379" style="fill:#fff;fill-rule:nonzero;"/><rect x="338.594" y="110.817" width="2.632" height="12.38" style="fill:#fff;fill-rule:nonzero;"/><rect x="226.493" y="140.348" width="2.631" height="12.379" style="fill:#fff;fill-rule:nonzero;"/><rect x="180.582" y="152.945" width="12.379" height="2.632" style="fill:#fff;fill-rule:nonzero;"/><rect x="180.582" y="28.646" width="12.379" height="2.632" style="fill:#fff;fill-rule:nonzero;"/><rect x="226.493" y="42.835" width="2.631" height="12.379" style="fill:#fff;fill-rule:nonzero;"/><rect x="218.444" y="56.521" width="7.656" height="39.745" style="fill:#ef8d39;fill-rule:nonzero;"/><rect x="184.852" y="34.152" width="41.248" height="21.062" style="fill:#20b7e0;fill-rule:nonzero;"/><rect x="196.708" y="150.697" width="25.884" height="7.181" style="fill:#ce3135;fill-rule:nonzero;"/><path d="M227.808,29.698l-51.715,0" style="fill:none;stroke:#d3d3d5;stroke-width:1px;"/><path d="M9.229,7.631c-0.064,-0.41 -0.142,-1.044 -0.232,-1.9l-1.997,0l0,1.64l0.52,0l0.656,-0.56l1.053,0.82Zm-1.654,1.764l0,-0.998l-0.575,0l0,0.423c0,0.939 -0.114,1.773 -0.341,2.502c0.008,0 0.045,0.005 0.109,0.014c0.21,0.036 0.333,0.055 0.369,0.055c0.292,0 0.438,-0.665 0.438,-1.996m-2.571,-0.766l0,-2.16l-1.08,0l0,3.445c0.292,-0.091 0.643,-0.219 1.053,-0.383c0.018,-0.391 0.027,-0.692 0.027,-0.902m8.86,5.373c-0.292,0.738 -0.739,1.108 -1.34,1.108c-0.757,0 -1.418,-0.703 -1.983,-2.106c-0.738,0.766 -1.54,1.477 -2.406,2.133l-0.711,-0.738c0.948,-0.949 1.8,-1.992 2.557,-3.131c-0.255,-0.875 -0.47,-1.878 -0.643,-3.008l-0.232,0.191l0,1.08c0,1.167 -0.091,2.01 -0.273,2.53c-0.192,0.519 -0.598,0.779 -1.217,0.779l-0.67,0c0.009,-0.063 0.013,-0.123 0.013,-0.178c0,-0.364 -0.164,-0.615 -0.492,-0.752c-0.428,0.993 -1.276,2.092 -2.543,3.295l-0.943,-0.765c0.948,-1.212 1.554,-2.415 1.818,-3.61c-0.948,0.62 -2.083,1.185 -3.404,1.696l-0.807,-1.696c0.611,-0.128 1.067,-0.237 1.368,-0.328l0,-4.033l-1.368,0l0,-1.012l1.368,0l0,-3.541l1.982,0.369l0,3.172l0.027,0l0.452,-0.41l0.601,0.547l0,-1.654l1.996,0.765l1.887,0c-0.073,-0.683 -0.155,-1.613 -0.246,-2.789l2.064,0.424c0.028,0.738 0.073,1.526 0.137,2.365l0.875,0l0.424,-0.383c-0.292,-0.61 -0.634,-1.153 -1.026,-1.627l0.684,-0.628c0.61,0.319 1.198,0.729 1.764,1.23l-0.889,0.807l1.176,1.039l0,0.588l-2.926,0c0.118,1.075 0.269,2.069 0.451,2.98c0.264,-0.583 0.492,-1.208 0.684,-1.873l1.75,0.807c-0.602,1.385 -1.217,2.548 -1.846,3.486c0.31,1.021 0.492,1.531 0.547,1.531c0.063,0 0.237,-0.483 0.519,-1.449l0.834,0.273c-0.155,0.556 -0.232,1.017 -0.232,1.381c0,0.383 0.073,0.761 0.219,1.135" style="fill:#fff;fill-rule:nonzero;"/><path d="M27.863,4.856l-5.578,0l0,1.75l2.406,0l1.094,-0.902l1.9,1.463l-0.642,0.615l0,4.539c0,1.012 -0.465,1.517 -1.395,1.517l-1.381,0l0,-0.095c0,-0.821 -0.506,-1.263 -1.517,-1.326l0.041,-0.889l1.572,0.041c0.228,0 0.342,-0.101 0.342,-0.301l0,-3.65l-2.42,0l0,7.177l-2.365,0.411l0,-7.588l-2.311,0l0,5.947l-2.338,0.41l0,-8.271l2.338,0.902l2.311,0l0,-1.75l-5.346,0l0,-1.025l5.346,0l0,-1.914l2.365,0.437l0,1.477l3.445,0l0.807,-0.739l1.326,1.162l0,0.602Z" style="fill:#fff;fill-rule:nonzero;"/><path d="M33.141,4.418l-3.131,0c0.674,0.446 1.262,0.957 1.764,1.531l-1.012,0.889l1.217,0c0.537,-0.839 0.925,-1.646 1.162,-2.42m8.723,2.816l-1.149,0l0,7.616l-1.928,0.355l0,-7.971l-0.82,0l0,1.86c0,2.524 -0.611,4.561 -1.832,6.111l-1.053,-0.588c0.575,-1.403 0.862,-3.144 0.862,-5.222l0,-1.532l-2.912,0l0,1.08l0.629,0l0.82,-0.752l1.176,1.176l0,0.588l-2.434,0c0.856,0.328 1.695,0.779 2.516,1.354l-1.203,1.791c-0.575,-0.747 -1.076,-1.313 -1.504,-1.696l0,3.418l-2.106,0.383l0,-2.461c-0.392,0.547 -0.957,1.058 -1.695,1.531l-0.656,-0.834c0.947,-1.03 1.668,-2.192 2.16,-3.486l-1.983,0l0,-1.012l2.174,0l0,-1.08l-2.351,0l0,-1.025l1.791,0c-0.338,-0.638 -0.73,-1.244 -1.176,-1.818l0.642,-0.602l-1.148,0l0,-1.025l2.256,0l0,-1.477l2.228,0.424l0,1.053l0.41,0l0.821,-0.739l1.326,1.176l0,0.588l-2.488,0l1.845,0.506c-0.355,0.638 -0.92,1.276 -1.695,1.914l0.67,0l0.738,-0.725l1.149,1.012l0,-4.826l2.023,0.383l0,0.629c1.075,-0.337 1.86,-0.802 2.352,-1.395l1.545,1.231c-0.985,0.71 -2.284,1.125 -3.897,1.244l0,1.818l2.201,0l0.616,-0.561l1.08,1.053l0,0.533Z" style="fill:#fff;fill-rule:nonzero;"/><path d="M53.225,5.28l-1.791,0l0,0.615l1.791,0l0,-0.615Zm0,-1.599l-1.791,0l0,0.588l1.791,0l0,-0.588Zm-3.35,8.627l0,-0.506l-1.928,0l0,0.67l1.928,-0.164Zm0,-2.147l-1.928,0l0,0.615l1.928,0l0,-0.615Zm0,-1.504l-1.928,0l0,0.479l1.928,0l0,-0.479Zm-3.801,3.965l0,-3.965l-1.066,0l0,4.061l1.066,-0.096Zm0.629,-7.342l-1.695,0l0,0.615l1.695,0l0,-0.615Zm0,-1.599l-1.695,0l0,0.588l1.695,0l0,-0.588Zm9.16,-0.342l-0.478,0.478l0,9.844c0,0.939 -0.438,1.408 -1.313,1.408l-1.107,0c0,-0.328 -0.064,-0.542 -0.192,-0.642c-0.127,-0.101 -0.387,-0.178 -0.779,-0.233l0.069,-0.834l0.875,0.041c0.2,0 0.3,-0.09 0.3,-0.273l0.014,-0.123l-1.395,0.164l0,1.299l-1.968,0.383l0,-1.518l-4.867,0.383l0,1.107l-2.161,0.383l0,-13.289l2.161,0.738l1.613,0l0.861,-0.738l1.736,1.353l-0.56,0.534l0,3.199l-1.955,0.383l0,-0.465l-1.695,0l0,0.711l6.316,0l0.615,-0.561l1.203,1.053l0,0.533l-1.299,0l0,3.418l0.411,-0.424l0.97,0.821l0,-5.551l-1.791,0l0,0.232l-1.968,0.369l0,-5.605l1.968,0.738l1.737,0l0.861,-0.738l1.818,1.422Z" style="fill:#fff;fill-rule:nonzero;"/><path d="M1.353,142.399l0,-8.237l5.57,0l0,1.571l-3.512,0l0,1.444l3.236,0l0,1.571l-3.236,0l0,2.08l3.512,0l0,1.571l-5.57,0Z" style="fill:#fff;fill-rule:nonzero;"/><path d="M15.542,142.399l-2.5,0l-2.246,-3.347l-0.404,0.565l0,2.782l-2.069,0l0,-8.237l2.069,0l0,3.657l2.633,-3.657l2.395,0l-2.937,3.823l3.059,4.414Z" style="fill:#fff;fill-rule:nonzero;"/><path d="M23.431,142.399l-2.5,0l-2.246,-3.347l-0.404,0.565l0,2.782l-2.069,0l0,-8.237l2.069,0l0,3.657l2.633,-3.657l2.395,0l-2.937,3.823l3.059,4.414Z" style="fill:#fff;fill-rule:nonzero;"/><path d="M29.599,142.399l-5.499,0l0,-8.237l2.069,0l0,6.666l3.43,0l0,1.571Z" style="fill:#fff;fill-rule:nonzero;"/><path d="M30.584,142.399l0,-8.237l5.57,0l0,1.571l-3.512,0l0,1.444l3.236,0l0,1.571l-3.236,0l0,2.08l3.512,0l0,1.571l-5.57,0Z" style="fill:#fff;fill-rule:nonzero;"/><path d="M40.099,142.548c-0.63,0 -1.185,-0.061 -1.662,-0.183c-0.478,-0.122 -0.921,-0.272 -1.331,-0.453l0,-1.959l0.188,0c0.413,0.351 0.869,0.62 1.367,0.808c0.498,0.188 0.981,0.282 1.449,0.282c0.118,0 0.274,-0.013 0.468,-0.038c0.193,-0.026 0.349,-0.066 0.467,-0.122c0.144,-0.063 0.265,-0.15 0.365,-0.263c0.1,-0.112 0.149,-0.26 0.149,-0.445c0,-0.207 -0.081,-0.374 -0.243,-0.504c-0.162,-0.129 -0.356,-0.223 -0.581,-0.282c-0.28,-0.073 -0.58,-0.144 -0.899,-0.21c-0.319,-0.067 -0.616,-0.148 -0.893,-0.243c-0.638,-0.225 -1.095,-0.528 -1.372,-0.908c-0.277,-0.379 -0.415,-0.855 -0.415,-1.427c0,-0.771 0.326,-1.395 0.979,-1.872c0.653,-0.478 1.468,-0.717 2.445,-0.717c0.491,0 0.978,0.05 1.463,0.149c0.486,0.1 0.92,0.235 1.303,0.405l0,1.88l-0.182,0c-0.306,-0.261 -0.68,-0.483 -1.121,-0.664c-0.44,-0.18 -0.893,-0.27 -1.358,-0.27c-0.18,0 -0.342,0.013 -0.486,0.038c-0.144,0.026 -0.295,0.076 -0.454,0.149c-0.129,0.06 -0.241,0.147 -0.334,0.263c-0.095,0.116 -0.142,0.246 -0.142,0.391c0,0.21 0.075,0.377 0.225,0.5c0.149,0.124 0.437,0.235 0.865,0.335c0.277,0.062 0.543,0.123 0.8,0.182c0.256,0.059 0.529,0.14 0.821,0.243c0.572,0.207 0.996,0.485 1.275,0.833c0.279,0.348 0.418,0.809 0.418,1.38c0,0.819 -0.322,1.477 -0.966,1.975c-0.643,0.498 -1.513,0.747 -2.608,0.747" style="fill:#fff;fill-rule:nonzero;"/><path d="M48.834,142.399l-4.437,0l0,-1.438l1.184,0l0,-5.361l-1.184,0l0,-1.438l4.437,0l0,1.438l-1.184,0l0,5.361l1.184,0l0,1.438Z" style="fill:#fff;fill-rule:nonzero;"/><path d="M54.045,139.223l-0.841,-2.716l-0.841,2.716l1.682,0Zm-4.724,3.176l2.783,-8.238l2.256,0l2.783,8.238l-2.13,0l-0.514,-1.682l-2.589,0l-0.514,1.682l-2.075,0Z" style="fill:#fff;fill-rule:nonzero;"/><path d="M66.597,136.315l-4.402,0l-1.067,3.814l4.539,0l0.93,-3.814Zm4.156,8.244l-13.289,0l0,-1.053l7.424,0l0.547,-2.324l-4.594,0l-0.301,1.08l-2.461,-0.136l2.393,-8.819l-2.762,0l0,-1.053l10.733,0l0.82,-0.71l1.326,1.175l0,0.588l-7.588,0l-0.533,1.955l4.184,0l1.052,-0.943l2.133,1.559l-0.752,0.71l-1.613,6.918l1.148,0l0.807,-0.711l1.326,1.176l0,0.588Z" style="fill:#fff;fill-rule:nonzero;"/><path d="M77.015,138.353l-0.561,0l0,0.588l0.561,0l0,-0.588Zm0,-1.559l-0.561,0l0,0.547l0.561,0l0,-0.547Zm2.735,1.777l0,-2.857l-0.957,0l0,-0.725l-2.338,0l0,0.78l0.519,0l0.834,-0.725l1.654,1.285l-0.574,0.561l0,3.185l-1.873,0.369l0,-0.478l-0.56,0l0,0.971l0.82,0l0.643,-0.588l1.23,1.08l0,0.519l-2.693,0l0,0.711c0.783,-0.091 1.576,-0.196 2.379,-0.314l0.068,0.314c0.565,-1.321 0.848,-2.684 0.848,-4.088m-5.223,-0.218l-0.547,0l0,0.588l0.547,0l0,-0.588Zm0,-1.559l-0.547,0l0,0.547l0.547,0l0,-0.547Zm10.226,-1.367l-0.382,0.383l0,3.13c0,2.735 -0.115,4.389 -0.342,4.963c-0.11,0.283 -0.287,0.484 -0.533,0.602c-0.238,0.118 -0.561,0.178 -0.971,0.178l-0.889,0l0,-0.11c0,-0.637 -0.355,-1.011 -1.066,-1.121l0.082,-0.902c0.391,0.046 0.752,0.068 1.08,0.068c0.291,0 0.456,-0.21 0.492,-0.629c0.036,-0.428 0.069,-0.934 0.096,-1.517c0.027,-0.593 0.041,-1.144 0.041,-1.655l0,-3.117l-0.67,0l0,2.994c0,2.152 -0.939,4.193 -2.816,6.125l-0.793,-0.588c0.2,-0.374 0.35,-0.647 0.451,-0.82c-2.097,0.556 -4.257,1.026 -6.481,1.408l-0.615,-1.736c0.82,-0.046 1.841,-0.123 3.063,-0.232l0,-0.916l-2.858,0l0,-1.012l2.858,0l0,-0.971l-0.547,0l0,0.233l-1.873,0.369l0,-5.442l1.873,0.643l0.547,0l0,-0.793l-2.858,0l0,-1.012l2.858,0l0,-0.465c-0.839,0.046 -1.66,0.069 -2.461,0.069l-0.315,-1.135c2.196,-0.128 4.133,-0.424 5.811,-0.889l1.381,1.299c-0.757,0.173 -1.586,0.328 -2.489,0.465l0,0.656l1.121,0l0.588,-0.533l1.19,1.039l0,0.219l0.396,0l0,-3.145l1.969,0.383l0,2.762l0.547,0l0.752,-0.643l1.763,1.395Z" style="fill:#fff;fill-rule:nonzero;"/><path d="M96.128,139.323l-0.738,0l0,1.586l0.738,0l0,-1.586Zm-1.572,-4.088l-2.529,0l0,0.82l2.529,0l0,-0.82Zm-3.267,4.088l-0.67,0l0,1.586l0.67,0l0,-1.586Zm5.947,-4.566l-0.588,0.56l0,1.832l-2.092,0.397l0,-0.465l-2.529,0l0,0.191l-2.092,0.397l0,-4.279l2.092,0.82l2.488,0l0.957,-0.82l1.764,1.367Zm-3.637,4.101l-0.533,0.506l0,2.803l-1.777,0.328l0,-0.574l-0.67,0l0,0.451l-1.778,0.356l0,-5.114l1.778,0.684l0.629,0l0.765,-0.684l1.586,1.244Zm5.154,5.114l-10.445,0l0,0.465l-2.242,0.396l0,-13.289l2.242,0.779l8.026,0l0.82,-0.738l1.326,1.176l0,0.588l-10.172,0l0,9.597l8.313,0l0.711,-0.683l-1.204,0.232l0,-0.574l-0.738,0l0,0.451l-1.777,0.356l0,-5.114l1.777,0.684l0.697,0l0.766,-0.684l1.586,1.244l-0.533,0.506l0,2.803l-0.369,0.055l1.216,1.162l0,0.588Z" style="fill:#fff;fill-rule:nonzero;"/><path d="M133.941,196.272l-8.449,0l0,-1.025l2.885,0l0,-6.385l-2.352,0l0,-1.026l2.352,0l0,-4.58l2.406,0.438l0,4.142l1.107,0l0.766,-0.628l1.094,1.066l0,0.588l-2.967,0l0,6.385l1.025,0l0.807,-0.739l1.326,1.176l0,0.588Zm-6.59,-5.1l-1.176,1.955c-0.374,-0.765 -0.806,-1.467 -1.298,-2.105l0,5.141l-2.188,0.382l0,-4.853c-0.301,0.265 -0.793,0.62 -1.477,1.066l-0.56,-0.875c1.504,-1.659 2.588,-3.317 3.254,-4.976l-3.049,0l0,-1.026l1.531,0l0,-2.625l2.037,0.397l0,2.051l0.739,-0.643l1.818,1.367l-0.711,0.479c-0.437,0.911 -0.902,1.704 -1.394,2.379l0,0.273c0.747,0.392 1.572,0.93 2.474,1.613" style="fill:#fff;fill-rule:nonzero;"/><path d="M139.054,187.222l-0.943,0l0,1.381l0.943,0l0,-1.381Zm0,-2.338l-0.943,0l0,1.326l0.943,0l0,-1.326Zm0.11,7.041l-1.135,0l0,2.83l1.135,0l0,-2.83Zm4.06,0.683l0,-2.638l-1.832,0l0,-1.026l1.832,0l0,-2.611l-1.271,0l0.382,0.369l0,0.52l-1.353,0l0,2.707l-1.928,0.369l0,-0.67l-0.998,0c-0.055,0.446 -0.15,0.802 -0.287,1.066l0.26,0.219l1.107,0l0.807,-0.615l1.709,1.217l-0.52,0.451l0,0.642l2.092,0Zm4.717,1.012l-2.748,0l0,2.543l-1.969,0.383l0,-2.926l-2.092,0l0,2.365l-1.968,0.369l0,-0.574l-1.135,0l0,0.41l-1.955,0.356l0,-3.145c-0.156,0.31 -0.397,0.588 -0.725,0.834l-0.697,-0.683c0.802,-1.13 1.262,-2.439 1.381,-3.924l-1.326,0l0,-1.025l1.435,0l0,-1.381l-1.49,0l0,-1.012l1.49,0l0,-1.326l-1.34,0l0,-1.012l4.129,0l0.862,-0.615l1.75,1.23l-0.561,0.465l0,1.121l0.342,-0.342c0.227,0.21 0.342,0.32 0.342,0.329l0,-0.752l0.875,0c-0.256,-0.447 -0.629,-0.935 -1.122,-1.463l0.821,-0.588c0.446,0.246 1.066,0.706 1.859,1.381l-0.861,0.67l0.957,0c0.364,-0.465 0.724,-1.149 1.08,-2.051l1.695,0.56c-0.41,0.657 -0.925,1.154 -1.545,1.491l0.52,0l0.793,-0.657l1.203,1.121l0,0.561l-2.748,0l0,2.611l0.506,0l0.779,-0.711l1.313,1.162l0,0.575l-2.598,0l0,2.638l0.615,0l0.807,-0.752l1.326,1.176l0,0.588Z" style="fill:#fff;fill-rule:nonzero;"/><path d="M159.712,187.112l-0.369,0l0,0.725l0.369,0l0,-0.725Zm0,-1.545l-0.369,0l0,0.602l0.369,0l0,-0.602Zm-1.613,1.545l-0.328,0l0,0.725l0.328,0l0,-0.725Zm0,-1.545l-0.328,0l0,0.602l0.328,0l0,-0.602Zm1.231,8.231l0,-0.246l-2.776,0l0,0.205c0.647,0.364 1.067,0.615 1.258,0.752l-0.697,0.738l0.929,0c0.319,-0.483 0.575,-1.012 0.766,-1.586l0.52,0.137Zm0,-1.846l-2.775,0l0,0.588l2.775,0l0,-0.588Zm-2.803,-4.84l-0.301,0l0,0.725l0.301,0l0,-0.725Zm0,-1.545l-0.301,0l0,0.602l0.301,0l0,-0.602Zm3.336,4.854l-4.69,0l1.381,0.506l2.762,0l0.547,-0.506Zm0.629,-1.285l-0.78,0.15l0,-0.424l-3.486,0l0,0.178l-1.75,0.314l0,-1.449l-0.123,0.096l-0.492,1.217l0.246,0.177l6.07,0l0.315,-0.259Zm-8.231,-2.776l-0.287,0l0,0.711l0.287,0l0,-0.711Zm-0.164,5.346l-1.121,0l0,0.943l1.121,0l0,-0.943Zm0,-1.75l-1.121,0l0,0.725l1.121,0l0,-0.725Zm0.164,-4.539l0,-0.588l-1.463,0l0,2.242l0.26,0l0,-1.968l0.916,0.314l0.287,0Zm0.752,2.68l-2.885,0l-0.027,0.437l0.875,0.397l1.039,0l0.588,-0.561l0.342,0.219l0.068,-0.492Zm8.928,8.175l-7.998,0l0,-1.025l2.051,0c-0.192,-0.41 -0.433,-0.815 -0.725,-1.217l-0.615,0.205l0,-3.814l-0.547,0l0,-0.793l-0.342,0.383l0,5.222c0,0.785 -0.355,1.176 -1.066,1.176l-0.698,0l0,-0.068c0,-0.492 -0.319,-0.798 -0.957,-0.916l0.069,-0.738l0.779,0.013c0.137,0 0.205,-0.073 0.205,-0.219l0,-0.82l-1.121,0l0,2.557l-1.682,0.328l0,-7.26l-0.656,-0.219c0.073,-0.401 0.146,-1.153 0.219,-2.255l0.478,0.068l0,-3.623l1.463,0.56l1.436,0l0.656,-0.56l1.354,1.176l-0.52,0.464l0,2.065l0.219,-0.219l0.533,0.574l0,-3.349l1.75,0.574l0.233,0l0,-1.285l1.38,0.287l0,0.998l0.192,0l0,-1.285l1.381,0.287l0,0.998l0.246,0l0.67,-0.574l1.558,1.285l-0.424,0.451l0,3.254l-0.683,0.137l0.984,0.793l0,0.533l-1.517,0l1.463,1.121l-0.479,0.478l0,1.545l-1.477,0.342l1.067,0.274c-0.383,0.364 -0.839,0.719 -1.367,1.066l0.82,0l0.629,-0.547l1.039,1.067l0,0.505Z" style="fill:#fff;fill-rule:nonzero;"/><path d="M174.054,189.368l-0.437,0l0,1.135l0.437,0l0,-1.135Zm-1.176,-3.09c-0.419,-0.41 -0.765,-0.788 -1.039,-1.134c-0.374,0.519 -0.683,0.897 -0.929,1.134l1.968,0Zm-2.419,3.09l-0.41,0l0,1.135l0.41,0l0,-1.135Zm2.419,2.652l-0.669,0.206l0,-3.131l-0.342,0.396l0,2.174l-1.408,0.314l0,-0.451l-0.411,0l0,0.383l1.381,0.246c-0.136,0.511 -0.223,0.821 -0.26,0.93c0.629,0.309 1.003,0.506 1.122,0.588c0.282,-0.62 0.478,-1.171 0.587,-1.655m-4.238,-1.353l0,-2.557l-0.328,0.205l-0.602,-0.82c0.183,-0.137 0.36,-0.287 0.534,-0.451l-1.422,0l0,1.08l0.109,0l0.492,-0.492l1.012,1.012l0,0.505l-1.613,0l0,1.149l0.096,0l0.56,-0.547l1.162,0.916Zm-3.472,-1.518l-0.465,0l0,1.148l0.465,0l0,-1.148Zm0,-2.105l-0.465,0l0,1.08l0.465,0l0,-1.08Zm0,-2.037l-0.465,0l0,1.012l0.465,0l0,-1.012Zm0.97,8.736l-0.957,0.656c-0.155,-0.875 -0.355,-1.645 -0.601,-2.31l0.629,-0.287c0.282,0.456 0.592,1.102 0.929,1.941m-1.107,0.738l-1.053,0.588c-0.055,-1.266 -0.142,-2.196 -0.26,-2.789l0.657,-0.177c0.273,0.774 0.492,1.567 0.656,2.378m10.91,0.288l-1.258,1.626c-0.347,-0.702 -0.706,-1.293 -1.08,-1.777c-0.519,0.656 -1.199,1.299 -2.037,1.928l-0.67,-0.725l0.52,-0.601c-0.201,-0.41 -0.424,-0.793 -0.67,-1.149c-0.347,0.73 -1.035,1.554 -2.065,2.475l-0.711,-0.643c0.985,-1.385 1.504,-2.661 1.559,-3.828l-0.889,0.246l0,-1.162l-0.26,0.26c0,1.476 -0.087,2.68 -0.259,3.609c-0.174,0.921 -0.611,1.381 -1.313,1.381l-0.902,0l0,-0.096c0,-0.483 -0.347,-0.811 -1.039,-0.984l0.136,-0.738c0.611,0.063 0.994,0.096 1.149,0.096c0.209,0 0.337,-0.402 0.383,-1.204l-0.246,0.246c-0.256,-0.765 -0.538,-1.426 -0.848,-1.982l0.574,-0.355c0.155,0.145 0.36,0.374 0.615,0.683l0.014,-0.765l-1.941,0l0,0.341l-1.791,0.315l0,-8.518l1.791,0.533l2.447,0l0.588,-0.533l1.148,1.012l0,0.547l-2.064,0l0,1.012l0.109,0l0.492,-0.465l1.012,0.957l0,0.369c1.149,-1.121 1.9,-2.329 2.256,-3.623l1.996,0.424l-0.273,0.56c1.011,0.757 2.187,1.404 3.527,1.942l-0.725,2.037l-1.148,-0.916l-4.156,0c-0.438,0.292 -0.771,0.506 -0.998,0.642l1.134,0.397l0.383,0l0.506,-0.438l1.272,1.026l0,-1.012l1.408,0.424l0.424,0l0.492,-0.424l1.326,1.094l-0.383,0.451l0,2.146l-1.422,0.287l0,-0.369l-0.437,0l0,0.328l1.107,0.26c-0.137,0.501 -0.319,0.998 -0.547,1.49c0.629,0.347 1.217,0.734 1.764,1.163m-12.209,0.724l-1.08,-0.588c0.118,-0.711 0.178,-1.613 0.178,-2.707l0.752,0.096c0.1,1.094 0.15,2.16 0.15,3.199" style="fill:#fff;fill-rule:nonzero;"/><path d="M187.179,190.954l-2.693,0l0,3.65l2.693,0l0,-3.65Zm-7.861,1.627l-1.818,0.752c-0.019,-2.306 -0.16,-4.247 -0.424,-5.824l1.039,-0.342c0.555,1.704 0.957,3.509 1.203,5.414m3.937,-6.029l-6.562,0l0,-1.012l1.764,0l0,-2.228l2.146,0.41l0,1.818l0.506,0l0.82,-0.752l1.326,1.176l0,0.588Zm6.686,3.951l-0.615,0.588l0,4.949l-2.147,0.383l0,-0.793l-2.693,0l0,0.533l-2.16,0.383l0,-2.584c-1.45,0.82 -3.049,1.517 -4.799,2.092l-0.875,-2.037c1.112,-0.192 2.018,-0.374 2.721,-0.547c0.51,-2.48 0.838,-4.708 0.984,-6.686l2.16,0.588c-0.437,1.969 -1.039,3.892 -1.805,5.77c0.866,-0.255 1.404,-0.415 1.614,-0.479l0,-3.582l2.16,0.848l0.26,0l0,-6.672l2.242,0.424l0,2.502l0.82,0l0.807,-0.752l1.326,1.175l0,0.588l-2.953,0l0,2.735l0.137,0l0.984,-0.848l1.832,1.422Z" style="fill:#fff;fill-rule:nonzero;"/><path d="M275.978,215.017l-1.846,2.133c-2.379,-2.333 -3.86,-4.671 -4.443,-7.014c-0.082,1.277 -0.73,2.593 -1.941,3.951c-1.212,1.367 -2.68,2.384 -4.403,3.049l-0.656,-0.943c1.376,-0.821 2.543,-1.983 3.5,-3.487c0.948,-1.503 1.454,-3.076 1.518,-4.716l-5.018,0l0,-1.08l5.113,0l0,-3.063l2.53,0.465l0,2.598l3.513,0l0.807,-0.739l1.326,1.203l0,0.616l-5.592,0c0.638,2.597 2.502,4.94 5.592,7.027" style="fill:#fff;fill-rule:nonzero;"/><path d="M286.437,209.726l0,-0.547l-1.053,0l1.053,0.547Zm0,1.23l0,-1.175c-0.347,0.519 -0.798,0.911 -1.354,1.175l1.354,0Zm-1.299,-1.777l-1.012,0l0,1.723c0.165,-0.173 0.37,-0.479 0.616,-0.916c0.255,-0.438 0.387,-0.706 0.396,-0.807m-0.355,-2.433c-0.602,-0.438 -1.026,-0.812 -1.272,-1.122c-0.593,0.501 -1.217,0.875 -1.873,1.122l3.145,0Zm-2.516,4.21l0,-0.71l-0.752,0.71l0.752,0Zm0,-0.875l0,-0.902l-1.572,0c0.437,0.118 0.962,0.419 1.572,0.902m3.828,4.922l-5.742,0l0,0.492l5.742,0l0,-0.492Zm0,-1.476l-5.742,0l0,0.451l5.742,0l0,-0.451Zm-4.881,-2.571c-0.547,-0.628 -0.943,-1.03 -1.189,-1.203l0.547,-0.574l-0.656,0l0,1.777l1.298,0Zm5.223,1.19l0,-0.164l-6.521,0l0,0.15l-0.52,0.123l0.957,0.246l5.647,0l0.437,-0.355Zm0.232,-4.279c-0.254,-0.082 -0.542,-0.205 -0.861,-0.37l0,0.26l-5.25,0l0,-0.451c-0.364,0.173 -0.856,0.36 -1.476,0.561l0.834,0.287l6.412,0l0.341,-0.287Zm3.309,-1.231l-0.656,1.914c-0.383,-0.036 -0.711,-0.104 -0.985,-0.205l0.657,0.492l-0.452,0.369l0,2.803l-0.957,0.315l1.026,0.82l-0.424,0.424l0,3.035l-2.092,0.41l0,-0.506l-5.742,0l0,0.246l-2.105,0.397l0,-4.69l-0.424,0.123l0,-4.265c-0.283,0.109 -0.533,0.191 -0.752,0.246l-0.383,-0.861c2.524,-1.085 4.443,-2.366 5.756,-3.842l2.502,0.67l-0.465,0.355c1.358,0.976 3.19,1.559 5.496,1.75" style="fill:#fff;fill-rule:nonzero;"/><path d="M301.243,210.505l-1.436,0c0.337,0.747 0.716,1.39 1.135,1.928c0.164,-0.648 0.265,-1.29 0.301,-1.928m2.734,4.703l-1.394,1.942c-0.528,-0.52 -0.998,-1.072 -1.408,-1.655c-0.429,0.574 -0.939,1.126 -1.532,1.655l-0.629,-0.561c0.511,-0.784 0.949,-1.572 1.313,-2.365c-0.583,-0.948 -1.025,-2.138 -1.326,-3.569l0,6.125l-2.024,0.37l0,-13.29l2.024,0.766l1.982,0l0.903,-0.766l1.64,1.286l-0.492,0.588c-0.082,1.458 -0.292,2.351 -0.629,2.679c-0.337,0.337 -0.861,0.506 -1.572,0.506l-0.438,0c-0.046,-0.757 -0.428,-1.167 -1.148,-1.23l0.096,-0.739c0.656,0.091 1.098,0.137 1.326,0.137c0.264,0 0.419,-0.483 0.465,-1.449l-2.12,0l0,3.828l2.161,0l0.875,-0.697l1.804,1.244l-0.547,0.683c-0.227,1.076 -0.579,2.12 -1.052,3.131c0.364,0.337 0.938,0.798 1.722,1.381m-9.529,-6.535l-1.244,0l0,2.324l1.244,0l0,-2.324Zm0,-3.213l-1.244,0l0,2.188l1.244,0l0,-2.188Zm2.434,-0.273l-0.52,0.492l0,10.103c0,0.821 -0.378,1.231 -1.135,1.231l-1.093,0l0,-0.028c0,-0.71 -0.429,-1.088 -1.286,-1.134l0.041,-0.78l1.286,0.028c0.182,0 0.273,-0.087 0.273,-0.26l0,-2.816l-1.244,0l0,0.984c0,1.431 -0.569,2.811 -1.709,4.143l-0.807,-0.575c0.402,-1.066 0.602,-2.278 0.602,-3.636l0,-9.079l1.914,0.588l1.189,0l0.711,-0.588l1.778,1.327Z" style="fill:#fff;fill-rule:nonzero;"/><path d="M315.025,206.431l-1.546,0c-0.046,0.082 -0.114,0.173 -0.205,0.273c-0.055,0.091 -0.101,0.164 -0.137,0.219c0.429,0.392 0.812,0.689 1.149,0.889c0.309,-0.402 0.555,-0.861 0.738,-1.381m2.953,3.008l-1.012,1.791c-0.829,-0.347 -1.695,-0.834 -2.597,-1.463c-0.228,0.183 -0.597,0.424 -1.108,0.725l1.053,0.082c0,0.136 -0.018,0.415 -0.055,0.834c-0.018,0.2 -0.032,0.341 -0.041,0.423l0.629,0l0.875,-0.683l1.75,1.258l-0.519,0.546c0,1.878 -0.159,3.017 -0.479,3.418c-0.319,0.402 -0.779,0.602 -1.381,0.602l-0.738,0l0,-0.109c0,-0.657 -0.314,-1.007 -0.943,-1.053l0.054,-0.807l1.039,0.041l0.028,0c0.21,0 0.328,-0.218 0.355,-0.656c0.028,-0.437 0.055,-0.952 0.082,-1.545l-0.888,0c-0.21,0.957 -0.648,1.837 -1.313,2.639c-0.656,0.793 -1.458,1.345 -2.406,1.654l-0.602,-0.834c1.349,-1.003 2.119,-2.155 2.311,-3.459l-1.6,0l0,-1.025l1.819,0c0,-0.028 0.005,-0.082 0.013,-0.164c0.028,-0.292 0.05,-0.525 0.069,-0.698c-0.064,0.028 -0.164,0.074 -0.301,0.137c-0.128,0.055 -0.224,0.096 -0.287,0.123l-0.479,-0.806c0.747,-0.429 1.431,-0.958 2.051,-1.586c-0.31,-0.265 -0.624,-0.583 -0.943,-0.957c-0.183,0.227 -0.424,0.487 -0.725,0.779l-0.916,-0.629c0.82,-1.577 1.354,-2.967 1.6,-4.17l2.091,0.424c-0.2,0.511 -0.355,0.884 -0.464,1.121l2.023,0l0.615,-0.561l1.203,1.053l0,0.533l-0.875,0c-0.492,1.012 -0.924,1.709 -1.298,2.092c0.948,0.456 1.717,0.766 2.31,0.93m-5.906,0.15l-0.67,0.506l-1.231,1.955l-0.697,-0.328l0.26,-1.627l-0.451,0l0,5.414c0,1.003 -0.443,1.504 -1.326,1.504l-1.08,0l0,-0.096c0,-0.829 -0.411,-1.271 -1.231,-1.326l0.041,-0.889l1.285,0.042c0.21,0 0.315,-0.101 0.315,-0.301l0,-2.242c-0.447,0.965 -1.103,1.832 -1.969,2.597l-0.629,-0.615c0.774,-1.386 1.285,-2.748 1.531,-4.088l-1.531,0l0,-1.012l3.063,0c-0.474,-0.711 -1.19,-1.458 -2.147,-2.242l0.738,-0.916c0.675,0.282 1.322,0.624 1.942,1.026l0.629,-1.245l-3.924,0l0,-1.025l3.951,0l0.902,-0.82l1.86,1.435l-0.889,0.479l-1.613,1.777c0.246,0.2 0.405,0.342 0.478,0.424l-1.039,1.107l1.012,0l0.889,-0.82l1.531,1.326Z" style="fill:#fff;fill-rule:nonzero;"/><path d="M327.89,212.215l-5.127,0l0,2.816l5.127,0l0,-2.816Zm4.088,-3.008l-1.997,1.723c-0.355,-0.693 -0.779,-1.381 -1.271,-2.065c-2.707,0.866 -5.355,1.372 -7.943,1.518l1.996,0.806l5.113,0l1.08,-0.888l1.955,1.476l-0.656,0.616l0,4.293l-2.365,0.396l0,-1.025l-5.127,0l0,0.697l-2.366,0.396l0,-6.685c-0.282,0.027 -0.579,0.055 -0.888,0.082l-0.821,-2.229c0.894,0.019 1.614,0.028 2.161,0.028c1.112,-1.441 2.028,-2.935 2.748,-4.485l2.638,0.698c-0.957,1.403 -2.032,2.661 -3.226,3.773c1.595,-0.055 3.24,-0.2 4.935,-0.437c-0.355,-0.429 -0.76,-0.853 -1.216,-1.272l1.121,-1.012c1.512,1.103 2.889,2.302 4.129,3.596" style="fill:#fff;fill-rule:nonzero;"/><path d="M10.262,79.358l-4.758,0l0,1.463l4.758,0l0,-1.463Zm-0.314,-4.607l-4.443,0l0,1.271l4.443,0l0,-1.271Zm1.558,-2.529l-8.011,0c-0.046,0.273 -0.092,0.487 -0.137,0.642l2.146,0.875l4.416,0l1.039,-0.902l0.206,0.164l0.341,-0.779Zm2.639,-0.424l-0.807,0.383l-1.271,1.517l0.82,0.643l-0.574,0.56l0,2.229l-2.365,0.41l0,-0.506l-4.444,0l0,1.313l4.731,0l1.025,-0.903l1.942,1.504l-0.575,0.561l0,2.83l-2.365,0.424l0,-0.916l-4.758,0l0,0.629l-2.365,0.41l0,-9.229c-0.073,0.228 -0.178,0.515 -0.314,0.862l-1.969,-1.094c0.784,-0.966 1.349,-2.001 1.695,-3.104l1.149,0.301c-0.019,0.265 -0.032,0.456 -0.041,0.574l2.802,0l0,-1.599l2.366,0.437l0,1.162l2.57,0l0.943,-0.752l1.805,1.354Z" style="fill:#fff;fill-rule:nonzero;"/><path d="M25.862,73.493l0,-1.367c-0.292,0.61 -0.757,1.135 -1.395,1.572l0.561,0l0.52,-0.478l0.314,0.273Zm0,-1.641l0,-0.437l-1.395,0l1.395,0.437Zm0,7.506l0,-2.297l-1.627,0l0,1.463c0,0.156 0.082,0.233 0.246,0.233l0.315,0c0.182,0 0.373,-0.055 0.574,-0.164l0.492,0.765Zm0,-3.472l0,-1.176l-2.885,0l1.641,0.301l0,1.039l0.437,0l0.493,-0.452l0.314,0.288Zm-2.967,-1.176l-0.93,0l0,1.34l0.93,0l0,-1.34Zm-0.273,-3.295l-0.656,0l0,0.396l0.656,-0.396Zm1.777,0l-1.723,0c0.392,0.374 0.793,0.866 1.204,1.476l-1.19,0.752c-0.401,-1.02 -0.642,-1.599 -0.724,-1.736l0,1.791l1.64,0c0.264,-0.355 0.528,-1.116 0.793,-2.283m-4.389,8.121l0,-1.668l-0.451,0.314l-0.342,-0.847l-0.505,0.15l0,1.285l0.56,-0.396c0.036,0.046 0.282,0.432 0.738,1.162m0,-3.637l0,-2.379c-1.021,1.304 -1.946,2.265 -2.775,2.885l1.49,-0.246l-0.342,-0.615l0.862,-0.629c0.219,0.246 0.473,0.574 0.765,0.984m8.135,-4.853l-0.328,0.41l0,10.021c0,0.848 -0.392,1.272 -1.176,1.272l-1.312,0l0,-0.068c0,-0.703 -0.42,-1.081 -1.258,-1.135l0.041,-0.739l1.477,0.028c0.182,0 0.273,-0.087 0.273,-0.26l0,-0.533c-0.173,0.155 -0.488,0.232 -0.943,0.232l-1.491,0c-0.62,0 -0.929,-0.323 -0.929,-0.97l0,-2.243l-0.533,0l0,5.469l-1.956,0.356l0,-1.368l-0.601,0.452c-0.164,-0.839 -0.397,-1.718 -0.697,-2.639l0,3.199l-1.819,0.356l0,-2.735c-0.437,0.985 -0.82,1.668 -1.148,2.051l-0.889,-0.615c0.337,-0.747 0.656,-1.796 0.957,-3.145l1.08,0.328l0,-0.806c-0.41,0.118 -0.943,0.241 -1.599,0.369l-0.438,-1.777l0.793,-0.042c0.319,-0.328 0.592,-0.647 0.82,-0.957c-0.374,-0.829 -0.893,-1.676 -1.558,-2.543l0.67,-0.806c0.036,0.027 0.1,0.073 0.191,0.137c0.182,0.118 0.301,0.2 0.356,0.246c0.419,-0.957 0.76,-1.955 1.025,-2.994l1.996,0.71c-0.492,0.985 -1.148,2.029 -1.969,3.131l0.479,0.534c0.364,-0.511 0.811,-1.253 1.34,-2.229c0.674,0.328 1.011,0.497 1.011,0.506l0,-2.652l1.956,0.792l3.773,0l0.916,-0.792l1.49,1.449Z" style="fill:#fff;fill-rule:nonzero;"/><path d="M38.59,76.282l0,-3.309l-0.82,0l0,1.969c0,0.528 -0.023,0.976 -0.069,1.34l0.889,0Zm-3.295,1.025l-2.57,0l0,4.567c1.449,-1.359 2.305,-2.88 2.57,-4.567m0.26,-2.365l0,-1.969l-1.408,0c0.328,0.629 0.583,1.195 0.765,1.696l-1.722,0.67c-0.192,-1.331 -0.347,-2.188 -0.465,-2.571l0.001,3.514l2.747,0c0.054,-0.429 0.083,-0.875 0.083,-1.34m6.589,2.365l-3.458,0c0.583,1.523 1.73,2.589 3.444,3.2l-1.161,2.379c-1.03,-0.648 -1.801,-1.368 -2.312,-2.161c-0.501,-0.793 -0.884,-1.84 -1.148,-3.144c-0.136,0.993 -0.501,1.891 -1.094,2.693c-0.601,0.802 -1.639,1.673 -3.116,2.612l-0.547,-0.739l0,0.397l-2.038,0.342l0,-13.29l2.038,0.37l0,1.955l0.684,-0.287c0.008,0.027 0.03,0.063 0.068,0.109c0.054,0.101 0.096,0.173 0.123,0.219l1.955,0l0,-2.366l2.215,0.479l-0.001,1.887l0.78,0l0.821,-0.752l1.941,1.408l-0.548,0.588l0,3.008l0.492,-0.575l0.889,1.135l-0.027,0.533Zm-11.758,-3.199l0.001,1.149c0,0.483 -0.014,0.879 -0.041,1.189l-1.49,-0.615c0.054,-0.274 0.14,-0.921 0.258,-1.942l0,-0.041c0.029,-0.264 0.065,-0.907 0.111,-1.927l1.066,0.095c0,0.183 0.014,0.46 0.041,0.834c0.036,0.484 0.055,0.857 0.055,1.121l0,0.137Z" style="fill:#fff;fill-rule:nonzero;"/><path d="M53.465,73.056l-1.723,0l0,0.711l1.723,0l0,-0.711Zm0,-1.709l-1.723,0l0,0.684l1.723,0l0,-0.684Zm2.68,-0.328l-0.588,0.574l0,9.652c0,1.003 -0.465,1.504 -1.394,1.504l-0.862,0l0,-0.096c0,-0.82 -0.51,-1.262 -1.531,-1.326l0.041,-0.82c-1.066,-0.72 -1.823,-1.495 -2.269,-2.324c-0.793,1.495 -1.937,2.606 -3.432,3.336l-0.738,-0.916c0.747,-0.621 1.38,-1.431 1.9,-2.434c0.528,-0.993 0.82,-1.946 0.875,-2.857l2.092,0.205c-0.028,0.456 -0.087,0.829 -0.178,1.121c1.039,1.039 2.155,1.75 3.35,2.132c-0.912,1.113 -1.372,1.673 -1.381,1.682l1.094,0.027c0.227,0 0.341,-0.1 0.341,-0.3l0,-5.387l-1.722,0l0,0.205l-2.037,0.397l0,-5.797l2.037,0.724l1.654,0l0.834,-0.724l1.914,1.422Zm-9.174,2.037l-1.654,0l0,0.711l1.654,0l0,-0.711Zm0,-1.709l-1.654,0l0,0.684l1.654,0l0,-0.684Zm2.502,-0.328l-0.478,0.464l0,3.514l-2.024,0.397l0,-0.602l-1.654,0l0,7.725l-2.106,0.369l0,-13.289l2.106,0.724l1.531,0l0.82,-0.724l1.805,1.422Z" style="fill:#fff;fill-rule:nonzero;"/><path d="M66.782,78.333l-3.691,0l0,2.611l3.691,0l0,-2.611Zm3.363,-2.898l-4.156,0l0,1.873l0.738,0l1.025,-0.862l1.887,1.436l-0.629,0.588l0,3.91l-2.228,0.383l0,-0.793l-3.692,0l0,0.533l-2.242,0.383l0,-6.44l2.242,0.862l0.657,0l0,-4.649l2.242,0.438l0,1.312l2.023,0l0.807,-0.738l1.326,1.176l0,0.588Zm0,-3.036l-9.734,0l0,4.321c0,2.223 -0.853,4.279 -2.557,6.166l-0.998,-0.616c0.848,-1.686 1.271,-3.582 1.271,-5.687l0,-5.988l2.284,0.793l3.076,0l0,-1.791l2.365,0.437l0,1.354l2.16,0l0.807,-0.752l1.326,1.176l0,0.587Z" style="fill:#fff;fill-rule:nonzero;"/><path d="M11.807,108.191l0,-1.354l-1.586,0l0,0.793l0.465,-0.437l1.121,0.998Zm0,-2.16l0,-0.766l-1.586,0l0,0.561l0.506,0l0.478,-0.438l0.602,0.643Zm-1.805,2.543l-1.107,0l0,0.807l1.107,0l0,-0.807Zm1.805,-4.143l0,-0.97l-2.98,0l1.394,0.314l0,0.465l0.506,0l0.478,-0.438l0.602,0.629Zm-3.24,0.834l-1.408,0l0,0.561l1.408,0l0,-0.561Zm0,-1.804l-1.408,0l0,0.779l1.408,0l0,-0.779Zm5.496,-0.383l-0.383,0.465l0,7.82c0,0.811 -0.374,1.217 -1.121,1.217l-0.93,0l0,-0.069c0,-0.528 -0.46,-0.875 -1.381,-1.039l0.055,-0.752l1.244,0.028c0.173,0 0.26,-0.078 0.26,-0.233l0,-2.051l-0.287,0.274l0,1.572l-1.518,0.356l0,-0.274l-1.107,0l0,0.369l-1.504,0.356l0,-3.856l1.176,0.342l0,-0.766l-1.408,0l0,1.149c0,1.504 -0.434,2.98 -1.299,4.43l-0.944,-0.479c0.255,-0.811 0.383,-2.151 0.383,-4.019l0,-6.153l1.86,0.67l4.511,0l0.725,-0.67l1.668,1.313Zm-9.475,0.465l-1.763,1.066c-0.411,-0.829 -0.885,-1.526 -1.422,-2.092l1.011,-0.752c0.811,0.492 1.536,1.085 2.174,1.778m9.557,9.392l-0.492,1.846l-6.563,0c-1.513,0 -2.73,-0.684 -3.65,-2.051c-0.274,0.82 -0.648,1.595 -1.121,2.324l-1.463,-1.845c1.012,-0.839 1.517,-1.595 1.517,-2.27l0,-4.266l-1.517,0l0,-1.025l1.463,0l0.998,-0.848l1.75,1.422l-0.615,0.588l0,5.031c0.136,0.31 0.451,0.566 0.943,0.766c0.501,0.21 1.012,0.314 1.531,0.314l7.219,0.014Z" style="fill:#fff;fill-rule:nonzero;"/><path d="M25.835,108.177l-1.107,0c0.218,0.911 0.451,1.577 0.697,1.996c0.164,-0.456 0.301,-1.121 0.41,-1.996m-1.012,3.664c-0.337,-0.802 -0.656,-2.023 -0.957,-3.664l0,5.742c0.419,-0.729 0.739,-1.422 0.957,-2.078m0.766,-7.684l0,-0.656l-1.723,0l0,1.231c0.757,0.018 1.217,0.027 1.381,0.027c0.192,0 0.296,-0.077 0.315,-0.232c0.018,-0.164 0.027,-0.288 0.027,-0.37m-3.787,4.758l0,-2.379l-1.737,0l1.053,0.479c-0.547,0.62 -1.13,1.148 -1.75,1.586l0.629,0l0.725,-0.656l1.08,0.97Zm-2.461,-2.379l-2.666,0c0.401,0.265 0.875,0.716 1.422,1.354l-1.135,0.711l1.23,0c0.511,-0.738 0.893,-1.427 1.149,-2.065m8.805,6.495l-1.067,2.023c-0.529,-0.501 -0.994,-1.089 -1.394,-1.764c-0.31,0.556 -0.785,1.144 -1.422,1.764l-0.397,-0.656l0,0.287l-2.064,0.369l0,-5.428l-2.516,0l0,1.285l0.479,0l0.656,-0.615l1.244,1.094l0,0.547l-2.379,0l0,2.734l-2.174,0.383l0,-3.117l-2.132,0l0,-1.026l2.132,0l0,-1.285l-2.256,0l0,-1.025l1.641,0c-0.456,-1.012 -0.752,-1.605 -0.889,-1.778l0.424,-0.287l-1.162,0l0,-1.025l2.242,0l0,-1.189l-2.023,0l0,-1.026l2.023,0l0,-1.531l2.174,0.396l0,1.135l0.41,0l0.657,-0.615l1.244,1.094l0,0.547l-2.311,0l0,1.189l0.711,0l0.725,-0.656l1.08,0.97l0,-4.06l2.064,0.711l1.627,0l0.998,-0.711l1.655,1.299l-0.616,0.588l0,0.793c0,1.44 -0.524,2.16 -1.572,2.16l-1.107,0l0,-0.082c0,-0.62 -0.328,-0.949 -0.985,-0.985l0,1.614l2.037,0l0.711,-0.534l1.532,1.135l-0.479,0.506c-0.219,1.167 -0.547,2.251 -0.984,3.254c0.555,0.692 1.043,1.198 1.463,1.518" style="fill:#fff;fill-rule:nonzero;"/><path d="M39.862,105.662l0,-1.367c-0.292,0.61 -0.757,1.135 -1.395,1.572l0.561,0l0.52,-0.478l0.314,0.273Zm0,-1.641l0,-0.437l-1.395,0l1.395,0.437Zm0,7.506l0,-2.297l-1.627,0l0,1.463c0,0.156 0.082,0.233 0.246,0.233l0.315,0c0.182,0 0.373,-0.055 0.574,-0.164l0.492,0.765Zm0,-3.472l0,-1.176l-2.885,0l1.641,0.301l0,1.039l0.437,0l0.493,-0.452l0.314,0.288Zm-2.967,-1.176l-0.93,0l0,1.34l0.93,0l0,-1.34Zm-0.273,-3.295l-0.656,0l0,0.396l0.656,-0.396Zm1.777,0l-1.723,0c0.392,0.374 0.793,0.866 1.204,1.476l-1.19,0.752c-0.401,-1.02 -0.642,-1.599 -0.724,-1.736l0,1.791l1.64,0c0.264,-0.355 0.528,-1.116 0.793,-2.283m-4.389,8.121l0,-1.668l-0.451,0.314l-0.342,-0.847l-0.505,0.15l0,1.285l0.56,-0.396c0.036,0.046 0.282,0.432 0.738,1.162m0,-3.637l0,-2.379c-1.021,1.304 -1.946,2.265 -2.775,2.885l1.49,-0.246l-0.342,-0.615l0.862,-0.629c0.219,0.246 0.473,0.574 0.765,0.984m8.135,-4.853l-0.328,0.41l0,10.021c0,0.848 -0.392,1.272 -1.176,1.272l-1.312,0l0,-0.068c0,-0.703 -0.42,-1.081 -1.258,-1.135l0.041,-0.739l1.477,0.028c0.182,0 0.273,-0.087 0.273,-0.26l0,-0.533c-0.173,0.155 -0.488,0.232 -0.943,0.232l-1.491,0c-0.62,0 -0.929,-0.323 -0.929,-0.97l0,-2.243l-0.533,0l0,5.469l-1.956,0.356l0,-1.368l-0.601,0.452c-0.164,-0.839 -0.397,-1.718 -0.697,-2.639l0,3.199l-1.819,0.356l0,-2.735c-0.437,0.985 -0.82,1.668 -1.148,2.051l-0.889,-0.615c0.337,-0.747 0.656,-1.796 0.957,-3.145l1.08,0.328l0,-0.806c-0.41,0.118 -0.943,0.241 -1.599,0.369l-0.438,-1.777l0.793,-0.042c0.319,-0.328 0.592,-0.647 0.82,-0.957c-0.374,-0.829 -0.893,-1.676 -1.558,-2.543l0.67,-0.806c0.036,0.027 0.1,0.073 0.191,0.137c0.182,0.118 0.301,0.2 0.356,0.246c0.419,-0.957 0.76,-1.955 1.025,-2.994l1.996,0.71c-0.492,0.985 -1.148,2.029 -1.969,3.131l0.479,0.534c0.364,-0.511 0.811,-1.253 1.34,-2.229c0.674,0.328 1.011,0.497 1.011,0.506l0,-2.652l1.956,0.792l3.773,0l0.916,-0.792l1.49,1.449Z" style="fill:#fff;fill-rule:nonzero;"/><path d="M56.145,112.662l-1.326,2.393c-2.416,-0.638 -4.129,-1.646 -5.141,-3.022c-1.085,1.759 -3.236,2.767 -6.453,3.022l-0.369,-1.122c2.844,-0.62 4.484,-1.626 4.922,-3.021l-4.922,0l0,-1.012l5.072,0l0,-1.258l-4.935,0l0,-1.011l4.853,0l0,-0.875l-4.156,0l0,-1.026l4.156,0l0,-0.752l-4.799,0l0,-1.025l3.022,0c-0.055,-0.063 -0.529,-0.524 -1.422,-1.381l0.875,-0.806c0.766,0.292 1.654,0.801 2.666,1.531l-0.766,0.656l2.68,0c0.656,-0.583 1.208,-1.312 1.654,-2.187l2.078,0.902c-0.483,0.492 -1.075,0.921 -1.777,1.285l1.832,0l0.793,-0.738l1.326,1.176l0,0.587l-5.756,0l0,0.752l2.926,0l0.821,-0.738l1.326,1.176l0,0.588l-5.073,0l0,0.875l3.61,0l0.82,-0.752l1.326,1.176l0,0.587l-8.025,0l2.365,0.438l0,0.82l3.664,0l0.807,-0.752l1.326,1.176l0,0.588l-5.879,0c1.641,1.048 3.6,1.632 5.879,1.75" style="fill:#fff;fill-rule:nonzero;"/><path d="M68.819,107.056c-0.21,-0.41 -0.396,-0.729 -0.561,-0.957c-0.292,0.492 -0.583,0.897 -0.875,1.217l1.149,0l0.287,-0.26Zm-1.34,-3.186l-0.971,0l0,3.446l0.793,0l-0.765,-0.492c0.401,-0.802 0.715,-1.787 0.943,-2.954m-1.476,7.383l-0.615,0l0,1.08l0.615,0l0,-1.08Zm1.599,-0.301l-0.369,0.356l0,1.777l-1.23,0.26l0,-0.287l-0.616,0l0,0.178l-1.23,0.205l0,-3.295l1.23,0.383l0.575,0l0.451,-0.383l1.189,0.806Zm0.028,-0.902l-3.855,0l0,3.445l3.855,0l0,-3.445Zm-3.159,-2.734l0,-0.629l-0.752,0.629l0.752,0Zm0,-1.381l0,-2.065l-1.859,0l1.395,0.288c-0.11,0.428 -0.233,0.76 -0.37,0.998c0.292,0.191 0.57,0.451 0.834,0.779m-0.806,1.381c-0.101,-0.255 -0.306,-0.62 -0.616,-1.094c-0.31,0.446 -0.615,0.812 -0.916,1.094l1.532,0Zm6.412,2.351l-0.479,0.452l0,4.484l-1.968,0.342l0,-0.438l-3.856,0l0,0.205l-1.969,0.342l0,-6.644l1.969,0.615l3.815,0l0.724,-0.615l1.764,1.257Zm0.068,-1.326l-8.873,0l0,6.358l-1.914,0.355l0,-5.455l-0.383,0l0,1.695c0,1.568 -0.447,2.822 -1.34,3.76l-0.779,-0.41c0.364,-0.911 0.547,-2.019 0.547,-3.322l0,-1.723l-0.547,0l0,-1.025l2.502,0l0,-1.696l-0.629,0l0,0.41l-1.599,0.301l0,-5.359l1.599,0.342l0,3.295l0.629,0l0,-4.102l1.914,0.383l0,5.168l0.752,0l-0.697,-0.52c0.565,-0.747 0.952,-1.722 1.162,-2.926l-1.039,0l0,-1.025l3.021,0l0,-1.08l2.037,0.396l0,0.684l1.75,0l0.602,-0.547l1.189,1.026l0,0.546l-2.46,0l1.421,0.274c-0.128,0.483 -0.223,0.802 -0.287,0.957c0.392,0.227 0.816,0.615 1.272,1.162l-0.766,0.67l0.916,0.861l0,0.547Z" style="fill:#fff;fill-rule:nonzero;"/><path d="M408.861,79.802c-1.236,0 -2.217,-0.373 -2.943,-1.12c-0.728,-0.747 -1.089,-1.797 -1.089,-3.151c0,-1.305 0.363,-2.346 1.091,-3.123c0.728,-0.775 1.712,-1.164 2.946,-1.164c0.328,0 0.623,0.019 0.885,0.056c0.261,0.037 0.512,0.088 0.752,0.154c0.188,0.056 0.393,0.131 0.614,0.228c0.222,0.096 0.4,0.179 0.537,0.248l0,1.964l-0.21,0c-0.101,-0.088 -0.226,-0.195 -0.377,-0.318c-0.151,-0.124 -0.322,-0.244 -0.514,-0.362c-0.192,-0.118 -0.402,-0.219 -0.632,-0.302c-0.231,-0.083 -0.472,-0.125 -0.722,-0.125c-0.3,0 -0.574,0.048 -0.822,0.142c-0.25,0.094 -0.487,0.257 -0.712,0.489c-0.206,0.211 -0.375,0.494 -0.506,0.853c-0.131,0.357 -0.196,0.779 -0.196,1.266c0,0.513 0.068,0.944 0.205,1.292c0.135,0.348 0.315,0.629 0.536,0.843c0.214,0.207 0.454,0.357 0.717,0.448c0.264,0.093 0.526,0.139 0.788,0.139c0.272,0 0.534,-0.045 0.781,-0.136c0.246,-0.09 0.454,-0.19 0.625,-0.301c0.183,-0.115 0.346,-0.231 0.486,-0.349c0.14,-0.117 0.262,-0.223 0.365,-0.315l0.188,0l0,1.936c-0.151,0.07 -0.327,0.15 -0.524,0.241c-0.2,0.09 -0.406,0.167 -0.615,0.23c-0.258,0.077 -0.5,0.135 -0.724,0.176c-0.226,0.04 -0.536,0.061 -0.93,0.061" style="fill:#fff;fill-rule:nonzero;"/><path d="M417.158,73.927c0,-0.206 -0.039,-0.384 -0.118,-0.533c-0.08,-0.15 -0.212,-0.265 -0.396,-0.346c-0.13,-0.056 -0.273,-0.091 -0.431,-0.105c-0.159,-0.015 -0.357,-0.023 -0.592,-0.023l-0.692,0l0,2.219l0.592,0c0.287,0 0.532,-0.018 0.733,-0.053c0.201,-0.035 0.372,-0.109 0.511,-0.223c0.133,-0.104 0.232,-0.228 0.296,-0.372c0.065,-0.143 0.097,-0.332 0.097,-0.564m3.331,5.715l-2.523,0l-2.295,-3.021l-0.742,0l0,3.021l-2.058,0l0,-8.237l3.313,0c0.458,0 0.857,0.029 1.196,0.085c0.339,0.058 0.652,0.177 0.94,0.358c0.295,0.187 0.529,0.427 0.702,0.716c0.174,0.29 0.261,0.657 0.261,1.103c0,0.631 -0.143,1.143 -0.426,1.535c-0.284,0.393 -0.664,0.705 -1.139,0.938l2.771,3.502Z" style="fill:#fff;fill-rule:nonzero;"/><path d="M426.463,75.521c0,-0.49 -0.051,-0.908 -0.152,-1.253c-0.102,-0.345 -0.237,-0.628 -0.407,-0.85c-0.176,-0.224 -0.377,-0.385 -0.6,-0.483c-0.223,-0.098 -0.454,-0.147 -0.695,-0.147c-0.253,0 -0.484,0.045 -0.691,0.135c-0.206,0.091 -0.405,0.252 -0.597,0.485c-0.17,0.214 -0.307,0.498 -0.412,0.851c-0.105,0.355 -0.158,0.777 -0.158,1.268c0,0.505 0.05,0.924 0.149,1.258c0.1,0.334 0.237,0.613 0.41,0.838c0.176,0.229 0.378,0.392 0.603,0.49c0.225,0.097 0.457,0.146 0.696,0.146c0.245,0 0.48,-0.052 0.708,-0.158c0.23,-0.104 0.427,-0.267 0.593,-0.489c0.177,-0.239 0.314,-0.519 0.409,-0.838c0.096,-0.319 0.144,-0.736 0.144,-1.253m2.136,0.006c0,1.331 -0.357,2.378 -1.069,3.141c-0.712,0.764 -1.686,1.146 -2.925,1.146c-1.244,0 -2.219,-0.387 -2.927,-1.159c-0.708,-0.773 -1.062,-1.816 -1.062,-3.128c0,-1.324 0.354,-2.371 1.062,-3.14c0.708,-0.769 1.683,-1.153 2.927,-1.153c1.239,0 2.213,0.383 2.925,1.147c0.712,0.766 1.069,1.814 1.069,3.146" style="fill:#fff;fill-rule:nonzero;"/><path d="M432.365,79.792c-0.631,0 -1.185,-0.061 -1.662,-0.183c-0.478,-0.122 -0.921,-0.272 -1.33,-0.453l0,-1.959l0.187,0c0.413,0.351 0.868,0.62 1.367,0.808c0.498,0.188 0.981,0.282 1.449,0.282c0.118,0 0.274,-0.013 0.468,-0.038c0.193,-0.026 0.349,-0.066 0.467,-0.122c0.144,-0.063 0.266,-0.15 0.366,-0.263c0.099,-0.112 0.149,-0.26 0.149,-0.445c0,-0.207 -0.082,-0.374 -0.244,-0.504c-0.162,-0.129 -0.356,-0.223 -0.58,-0.282c-0.282,-0.073 -0.58,-0.144 -0.9,-0.21c-0.319,-0.067 -0.617,-0.148 -0.893,-0.243c-0.638,-0.225 -1.095,-0.528 -1.372,-0.908c-0.277,-0.379 -0.414,-0.855 -0.414,-1.427c0,-0.771 0.326,-1.395 0.978,-1.872c0.653,-0.478 1.468,-0.717 2.445,-0.717c0.491,0 0.979,0.05 1.463,0.149c0.486,0.1 0.919,0.235 1.303,0.405l0,1.88l-0.183,0c-0.305,-0.261 -0.679,-0.483 -1.12,-0.664c-0.44,-0.18 -0.893,-0.27 -1.357,-0.27c-0.182,0 -0.344,0.013 -0.487,0.038c-0.144,0.026 -0.295,0.076 -0.454,0.149c-0.129,0.06 -0.241,0.147 -0.334,0.263c-0.094,0.116 -0.142,0.246 -0.142,0.391c0,0.21 0.075,0.377 0.225,0.5c0.149,0.124 0.437,0.235 0.865,0.335c0.277,0.062 0.543,0.123 0.8,0.182c0.255,0.059 0.53,0.14 0.821,0.243c0.571,0.207 0.997,0.485 1.275,0.833c0.279,0.348 0.417,0.809 0.417,1.38c0,0.819 -0.321,1.477 -0.965,1.975c-0.643,0.498 -1.512,0.747 -2.608,0.747" style="fill:#fff;fill-rule:nonzero;"/><path d="M439.54,79.792c-0.631,0 -1.185,-0.061 -1.662,-0.183c-0.478,-0.122 -0.921,-0.272 -1.33,-0.453l0,-1.959l0.187,0c0.413,0.351 0.868,0.62 1.367,0.808c0.498,0.188 0.981,0.282 1.449,0.282c0.118,0 0.274,-0.013 0.468,-0.038c0.193,-0.026 0.349,-0.066 0.467,-0.122c0.144,-0.063 0.266,-0.15 0.366,-0.263c0.099,-0.112 0.149,-0.26 0.149,-0.445c0,-0.207 -0.082,-0.374 -0.244,-0.504c-0.162,-0.129 -0.356,-0.223 -0.58,-0.282c-0.282,-0.073 -0.58,-0.144 -0.9,-0.21c-0.319,-0.067 -0.617,-0.148 -0.893,-0.243c-0.638,-0.225 -1.095,-0.528 -1.372,-0.908c-0.277,-0.379 -0.414,-0.855 -0.414,-1.427c0,-0.771 0.326,-1.395 0.978,-1.872c0.653,-0.478 1.468,-0.717 2.445,-0.717c0.491,0 0.979,0.05 1.463,0.149c0.486,0.1 0.919,0.235 1.303,0.405l0,1.88l-0.183,0c-0.305,-0.261 -0.679,-0.483 -1.12,-0.664c-0.44,-0.18 -0.893,-0.27 -1.357,-0.27c-0.182,0 -0.344,0.013 -0.487,0.038c-0.144,0.026 -0.295,0.076 -0.454,0.149c-0.129,0.06 -0.241,0.147 -0.334,0.263c-0.094,0.116 -0.142,0.246 -0.142,0.391c0,0.21 0.075,0.377 0.225,0.5c0.149,0.124 0.437,0.235 0.865,0.335c0.277,0.062 0.543,0.123 0.8,0.182c0.255,0.059 0.53,0.14 0.821,0.243c0.571,0.207 0.997,0.485 1.275,0.833c0.279,0.348 0.417,0.809 0.417,1.38c0,0.819 -0.321,1.477 -0.965,1.975c-0.643,0.498 -1.512,0.747 -2.608,0.747" style="fill:#fff;fill-rule:nonzero;"/><path d="M452.916,79.369l0,-2.502l-2.625,0c0.684,0.511 1.321,1.085 1.914,1.723l-1.094,1.039l1.477,0.041c0.219,0 0.328,-0.101 0.328,-0.301m4.047,-2.502l-1.818,0l0,3.568c0,1.003 -0.465,1.504 -1.395,1.504l-1.244,0l0,-0.095c0,-0.821 -0.511,-1.263 -1.531,-1.327l0.041,-0.779l-0.356,0.342c-0.41,-0.976 -0.925,-1.923 -1.545,-2.844l0.41,-0.369l-0.806,0l0,-0.643c-0.028,0.028 -0.2,0.16 -0.52,0.397l0,5.072l-2.146,0.383l0,-4.088c-0.392,0.228 -0.788,0.438 -1.19,0.629l-1.025,-1.969c0.902,-0.264 1.641,-0.497 2.215,-0.697l0,-3.309l-0.807,0c-0.155,0.52 -0.392,1.135 -0.711,1.846l-0.861,-0.342c0.273,-1.394 0.432,-2.925 0.478,-4.593l1.696,0.314c-0.091,0.692 -0.197,1.276 -0.315,1.75l0.52,0l0,-2.83l2.146,0.41l0,2.297l0.451,-0.396l0.616,0.533l0,-0.821l2.146,0l0,-2.023l2.215,0.41l0,1.613l0.957,0l0.793,-0.711l1.312,1.163l0,0.574l-3.062,0l0,1.572l1.203,0l0.807,-0.752l1.326,1.176l0,0.588l-8.217,0l0,-1.012l2.666,0l0,-1.572l-1.9,0l0.328,0.287l0,0.519l-1.641,0l0,2.407c0.301,-0.128 0.643,-0.296 1.026,-0.506l0.574,0.793c-0.255,0.21 -0.46,0.383 -0.615,0.519l3.746,0l0,-1.381l2.215,0.424l0,0.903l0.601,-0.547l1.217,1.094l0,0.519Z" style="fill:#fff;fill-rule:nonzero;"/><path d="M468.064,73.23l-1.244,0l0,0.643l1.244,0l0,-0.643Zm1.067,-2.666l-3.719,0l0,0.383l3.322,0l0.397,-0.383Zm-4.334,2.666l-1.162,0l0,0.643l1.162,0l0,-0.643Zm2.748,5.196l-6.453,0l0,0.396l6.453,0l0,-0.396Zm0,-1.203l-6.453,0l0,0.355l6.453,0l0,-0.355Zm0,-1.19l-6.453,0l0,0.342l6.453,0l0,-0.342Zm0.301,-1.258l-7.369,0l0,0.082l0.615,0.274l6.357,0l0.397,-0.356Zm-6.248,-1.545l-1.121,0l0,0.643l1.121,0l0,-0.643Zm6.959,-1.285l-9.639,0l1.559,0.397l7.546,0l0.534,-0.397Zm2.406,8.573l-1.49,1.558c-1.614,-0.729 -2.999,-1.294 -4.157,-1.695l0.78,-0.656l-3.528,0l1.135,1.039c-1.595,0.592 -3.358,1.03 -5.291,1.312l-0.738,-1.025c1.358,-0.337 2.47,-0.689 3.336,-1.053l-2.024,0.383l0,-5.195l-0.656,0.191l0,-3.623l0.15,0.055l0,-0.862l4.581,0l0,-0.383l-5.387,0l0,-0.998l5.387,0l0,-0.779l2.351,0.438l0,0.341l3.637,0l0.697,-0.601l1.217,1.066l0,0.533l-1.395,0l0.985,0.848l0,0.533l-1.381,0l1.572,0.998l-0.519,0.424l0,1.354c-0.675,0.191 -1.017,0.287 -1.026,0.287l1.012,0.738l-0.561,0.424l0,3.527l-1.312,0.287c0.802,0.128 1.677,0.306 2.625,0.534" style="fill:#fff;fill-rule:nonzero;"/><path d="M482.338,76.566l-0.738,0l0,1.586l0.738,0l0,-1.586Zm-1.572,-4.087l-2.529,0l0,0.82l2.529,0l0,-0.82Zm-3.268,4.087l-0.67,0l0,1.586l0.67,0l0,-1.586Zm5.947,-4.566l-0.588,0.561l0,1.832l-2.091,0.396l0,-0.465l-2.53,0l0,0.192l-2.091,0.396l0,-4.279l2.091,0.82l2.489,0l0.957,-0.82l1.763,1.367Zm-3.636,4.102l-0.534,0.505l0,2.803l-1.777,0.328l0,-0.574l-0.67,0l0,0.451l-1.777,0.356l0,-5.114l1.777,0.684l0.629,0l0.766,-0.684l1.586,1.245Zm5.154,5.113l-10.445,0l0,0.465l-2.243,0.396l0,-13.289l2.243,0.779l8.025,0l0.82,-0.738l1.326,1.176l0,0.588l-10.171,0l0,9.597l8.312,0l0.711,-0.683l-1.203,0.232l0,-0.574l-0.738,0l0,0.451l-1.778,0.356l0,-5.114l1.778,0.684l0.697,0l0.766,-0.684l1.585,1.245l-0.533,0.505l0,2.803l-0.369,0.055l1.217,1.162l0,0.588Z" style="fill:#fff;fill-rule:nonzero;"/><path d="M216.96,203.159l-96.212,0l0,-2l94.212,0l0,-46.872l2,0l0,48.872Z" style="fill:#ce3135;fill-rule:nonzero;"/><path d="M265.07,92.329l0.096,0.096c0.246,0.234 0.48,0.408 0.704,0.52c0.027,0.011 0.058,0.03 0.096,0.056c0.448,-0.208 0.792,-0.432 1.032,-0.672l-1.928,0Zm-0.448,-1.608l2.881,0l0,-0.504l-2.881,0l0,0.504Zm0,-1.033l2.881,0l0,-0.455l-2.881,0l0,0.455Zm-1.496,3.969c0.133,-0.011 0.246,-0.019 0.337,-0.024c0.724,-0.054 1.322,-0.171 1.792,-0.352c-0.284,-0.208 -0.553,-0.448 -0.809,-0.721l-0.08,-0.08c-0.043,0.028 -0.08,0.049 -0.111,0.065l-0.289,0.16l-0.432,0.208l-0.424,-0.504c0.821,-0.347 1.405,-0.71 1.752,-1.088l-0.952,0l0,-2.432l-0.384,0.344l-0.472,-0.552c0.662,-0.486 1.195,-1.048 1.6,-1.688l0.696,0.191l-0.16,0.256l-0.136,0.169l3.657,0l0,0.616l-4.105,0l-0.192,0.208c-0.085,0.085 -0.159,0.149 -0.224,0.192l4.025,0l0,2.696l-2.504,0l-0.169,0.192c-0.09,0.09 -0.168,0.163 -0.232,0.215l2.672,0l0,0.513c-0.266,0.347 -0.632,0.664 -1.096,0.952l-0.2,0.119c0.401,0.145 0.96,0.248 1.68,0.313c0.091,0.011 0.203,0.023 0.336,0.04l-0.288,0.68c-0.982,-0.139 -1.794,-0.35 -2.44,-0.632c-0.719,0.282 -1.568,0.496 -2.544,0.639l-0.304,-0.695Zm-1.744,-4.952c0.534,-0.405 1.041,-0.944 1.52,-1.616l0.608,0.36c-0.047,0.069 -0.087,0.128 -0.12,0.176c-0.422,0.608 -0.947,1.171 -1.576,1.687l-0.432,-0.607Zm0.776,2.552l-0.296,0.32l-0.28,0.264l-0.24,-0.784c0.501,-0.448 1.021,-1.11 1.56,-1.984l0.544,0.424l-0.304,0.512c-0.069,0.123 -0.155,0.245 -0.256,0.368l0,3.975l-0.728,0l0,-3.095Z" style="fill:#231b3d;fill-rule:nonzero;"/><path d="M277.479,92.56c-0.476,-1.69 -0.899,-2.936 -1.272,-3.735l0.711,-0.281c0.492,1.008 0.897,2.056 1.216,3.144c0.048,0.155 0.107,0.348 0.177,0.576l-0.832,0.296Zm-2.32,0.633l0,0.199c0,0.342 -0.076,0.571 -0.229,0.689c-0.151,0.117 -0.428,0.175 -0.827,0.175l-1.032,0l-0.185,-0.847l1.113,0.04c0.197,0 0.295,-0.059 0.295,-0.177l0,-0.008l0,-0.096l0,-6.175l0.865,0l0,6.2Zm-2.128,-4.401c-0.267,1.504 -0.699,2.797 -1.296,3.88l-0.784,-0.416c0.587,-0.975 1.023,-2.2 1.311,-3.672l0.769,0.208Z" style="fill:#231b3d;fill-rule:nonzero;"/><path d="M285.231,89.785c0.149,0.618 0.373,1.191 0.672,1.72c0.299,0.528 0.692,1.008 1.181,1.44c0.487,0.432 0.76,0.648 0.819,0.648l-0.6,0.719c-0.086,0 -0.368,-0.235 -0.847,-0.708c-0.481,-0.471 -0.874,-0.982 -1.181,-1.531c-0.307,-0.55 -0.596,-1.312 -0.868,-2.288l-0.119,0l-0.097,0.399c-0.181,0.663 -0.425,1.25 -0.731,1.765c-0.307,0.515 -0.749,1.04 -1.325,1.576c-0.576,0.535 -0.909,0.804 -1,0.804l-0.591,-0.744c0.095,0 0.407,-0.222 0.935,-0.664c0.528,-0.443 0.944,-0.912 1.248,-1.408c0.304,-0.497 0.536,-1.073 0.696,-1.728l-2.696,0l0,-0.832l2.832,0c0.059,-0.31 0.088,-0.632 0.088,-0.968c0,-0.363 0.006,-0.693 0.017,-0.992l0.815,0l-0.016,1.063c0,0.294 -0.016,0.592 -0.047,0.897l3.311,0l0,0.832l-2.496,0Z" style="fill:#231b3d;fill-rule:nonzero;"/><path d="M296.639,88.993l-0.656,0l0,0.52l0.656,0l0,-0.52Zm0,-0.929l-0.656,0l0,0.456l0.656,0l0,-0.456Zm-1.912,1.449l0.64,0l0,-0.52l-0.64,0l0,0.52Zm0.639,-1.449l-0.64,0l0,0.456l0.64,0l0,-0.456Zm-1.024,4.897l0.112,0.304l0.105,0.328l0.983,0c0.054,-0.08 0.106,-0.19 0.16,-0.328l0.12,-0.304l-1.48,0Zm2.032,-1l-2.592,0l0,0.44l2.592,0l0,-0.44Zm-2.264,-2.968l-0.624,0l0,0.52l0.624,0l0,-0.52Zm0,-0.929l-0.624,0l0,0.456l0.624,0l0,-0.456Zm3.153,-0.551l0,2.551l-4.393,0l0,-2.551l1.24,0l0,-0.52l0.617,0l0,0.52l0.639,0l0,-0.52l0.616,0l0,0.52l1.281,0Zm0.175,3.512l-4.664,0l0,-0.601l4.664,0l0,0.601Zm-3.551,2.568c-0.011,-0.08 -0.04,-0.179 -0.089,-0.296l-0.119,-0.336l-0.593,0l0,-1.56l3.984,0l0,1.56l-0.544,0l-0.12,0.304l-0.16,0.328l1.265,0l0,0.616l-5,0l0,-0.616l1.376,0Zm-2.689,-5.384l-0.192,-0.536c-0.042,-0.123 -0.11,-0.278 -0.199,-0.464c-0.011,-0.026 -0.025,-0.059 -0.04,-0.096l0.687,-0.12c0.026,0.064 0.051,0.12 0.072,0.168c0.091,0.202 0.155,0.355 0.193,0.456l0.207,0.592l0.688,0l0,0.632l-0.32,0.807c-0.111,0.279 -0.23,0.505 -0.352,0.681l0.504,0.496c0.15,0.16 0.296,0.322 0.441,0.487l-0.481,0.537l-0.272,-0.409c-0.122,-0.17 -0.216,-0.287 -0.28,-0.351l0,3.264l-0.68,0l0,-3.032c-0.208,0.25 -0.432,0.486 -0.672,0.704l-0.064,0.064l-0.295,-0.696c0.767,-0.656 1.337,-1.475 1.711,-2.456l-1.591,0l0,-0.728l0.935,0Z" style="fill:#231b3d;fill-rule:nonzero;"/><path d="M305.047,90.097l-3.224,0l0,0.76l3.224,0l0,-0.76Zm1.992,-1.84l0,2.04l-0.744,0l0,-1.344l-5.712,0l0,1.344l-0.744,0l0,-2.04l1.464,0l-0.256,-0.376c-0.112,-0.16 -0.216,-0.288 -0.313,-0.384l0.664,-0.328c0.267,0.314 0.502,0.643 0.705,0.984c0.016,0.027 0.037,0.061 0.064,0.104l0.912,0l0,-1.264l0.744,0l0,1.264l0.96,0c0.224,-0.261 0.461,-0.627 0.712,-1.096l0.728,0.312l-0.281,0.416c-0.052,0.08 -0.119,0.166 -0.199,0.256c-0.027,0.027 -0.061,0.064 -0.104,0.112l1.4,0Zm-3.976,3.263l-1.976,0l0,-2.087l4.696,0l0,2.087l-1.976,0l0,0.561l2.848,0l0,0.688l-2.848,0l0,0.671l3.296,0l0,0.713l-7.369,0l0,-0.713l3.329,0l0,-0.671l-2.8,0l0,-0.688l2.8,0l0,-0.561Z" style="fill:#231b3d;fill-rule:nonzero;"/><path d="M281.391,14.899l-0.824,0l0,0.824l0.824,0l0,-0.824Zm-0.825,-0.568l0.824,0l0,-0.744l-0.824,0l0,0.744Zm-0.511,4.017l1.288,0l0,-0.801l-1.16,0l-0.128,0.801Zm1.984,-1.92l0,0.487l0.928,0l0,0.632l-0.928,0l0,0.801l1.064,0l0,0.647l-1.064,0l0,0.84l-0.696,0l0,-0.84l-2.088,0l0.384,-2.08l1.704,0l0,-0.487l0.696,0Zm-2.928,-0.704l0.792,0l0,-0.824l-0.792,0l0,0.824Zm0,-1.393l0.792,0l0,-0.744l-0.792,0l0,0.744Zm-0.664,0.568l-0.769,0l0,0.824l0.769,0l0,-0.824Zm-0.768,-0.568l0.769,0l0,-0.744l-0.769,0l0,0.744Zm-0.153,3.576l0.481,0.376l0.072,-0.072c0.202,-0.213 0.398,-0.493 0.584,-0.84l-1.504,0l-0.152,0.168c0.064,0.043 0.117,0.078 0.16,0.105c0.112,0.074 0.231,0.162 0.359,0.263m-0.231,-1.592l0.584,0.232l-0.096,0.129l-0.12,0.111l1.695,0l0,0.608c-0.351,0.752 -0.757,1.307 -1.219,1.665c-0.461,0.357 -1.092,0.613 -1.892,0.767l-0.433,-0.624c0.71,-0.091 1.278,-0.266 1.705,-0.527c-0.219,-0.219 -0.534,-0.475 -0.944,-0.769l-0.192,0.145l-0.2,0.128l-0.449,-0.529c0.604,-0.331 1.123,-0.776 1.561,-1.336m5.687,-3.336l0,0.608l-0.911,0l0,0.744l1.032,0l0,0.568l-1.032,0l0,0.825l0.871,0l0,0.576l-6.951,0l0,-0.576l1.008,0l0,-0.825l-1.265,0l0,-0.568l1.265,0l0,-0.744l-0.04,0c-0.064,0.086 -0.171,0.192 -0.32,0.32l-0.4,0.344l-0.496,-0.535c0.613,-0.422 1.056,-0.835 1.328,-1.24l0.743,0.095l-0.183,0.248l-0.144,0.16l5.495,0Z" style="fill:#231b3d;fill-rule:nonzero;"/><path d="M291.19,17.14l-4.36,0l0,1.527l4.36,0l0,-1.527Zm-5.16,-0.697l5.96,0l0,3.392l-0.8,0l0,-0.472l-4.36,0l0,0.472l-0.8,0l0,-3.392Zm2.712,-3.744c-0.351,0.678 -0.821,1.408 -1.408,2.193c0.726,0 1.283,-0.003 1.673,-0.008l0.384,0c0.559,0 1.092,-0.028 1.599,-0.08l-0.647,-0.649l-0.624,-0.576l0.624,-0.472c0.88,0.752 1.666,1.56 2.359,2.424l-0.615,0.6l-0.265,-0.36l-0.2,-0.263c-0.911,0.074 -1.815,0.111 -2.712,0.111c-1.664,0 -2.823,0.014 -3.479,0.04l-0.08,-0.815l0.607,0.04l0.44,0c0.678,-0.801 1.195,-1.604 1.552,-2.408l0.792,0.223Z" style="fill:#231b3d;fill-rule:nonzero;"/><path d="M294.656,161.639l0,0.077c0.015,0.112 0.096,0.168 0.245,0.168l1.023,0l0,0.609l-1.121,0l-0.09,0c-0.234,0 -0.41,-0.055 -0.526,-0.165c-0.116,-0.109 -0.175,-0.323 -0.175,-0.64l0,-0.986l0.644,0l0,0.937Zm-1.196,-1.806l-0.092,-0.294c-0.046,-0.126 -0.098,-0.236 -0.153,-0.329l0.678,-0.084c0.14,0.252 0.229,0.488 0.266,0.707l1.736,0l0,1.351l-0.665,0l0,-0.77l-2.821,0l0,0.77l-0.672,0l0,-1.351l1.723,0Zm-0.491,0.819l0.63,0.056c-0.055,0.551 -0.195,0.986 -0.417,1.306c-0.221,0.319 -0.572,0.567 -1.052,0.745l-0.435,-0.539c0.378,-0.131 0.669,-0.299 0.872,-0.504c0.203,-0.205 0.337,-0.56 0.402,-1.064m0.449,2.933l-1.562,0l0,-0.609l3.864,0l0,0.609l-1.637,0l0,1.078l1.903,0l0,0.623l-4.437,0l0,-0.623l1.869,0l0,-1.078Zm-3.045,-0.616c-0.201,0.075 -0.421,0.138 -0.658,0.19c-0.015,0 -0.038,0.001 -0.071,0.006l-0.097,-0.644l0.398,-0.084l0.428,-0.119l0,-1.351l-0.813,0l0,-0.595l0.813,0l0,-1.246l0.63,0l0,1.246l0.573,0l0,0.595l-0.573,0l0,1.134l0.321,-0.147l0.267,-0.14l0.077,0.623l-0.294,0.154l-0.371,0.168l0,2.044c0,0.252 -0.052,0.436 -0.155,0.55c-0.102,0.114 -0.315,0.171 -0.636,0.171l-0.455,0l-0.155,-0.665l0.539,0.028c0.155,0 0.232,-0.072 0.232,-0.217l0,-1.701Z" style="fill:#231b3d;fill-rule:nonzero;"/><path d="M303.064,163.208l-3.815,0l0,1.337l3.815,0l0,-1.337Zm-4.515,-0.609l5.215,0l0,2.967l-0.7,0l0,-0.413l-3.815,0l0,0.413l-0.7,0l0,-2.967Zm2.373,-3.277c-0.308,0.593 -0.719,1.233 -1.232,1.919c0.634,0 1.123,-0.003 1.463,-0.008l0.336,0c0.49,0 0.956,-0.023 1.4,-0.069l-0.567,-0.567l-0.546,-0.504l0.546,-0.413c0.77,0.658 1.458,1.365 2.065,2.121l-0.539,0.525l-0.231,-0.315l-0.175,-0.232c-0.798,0.066 -1.589,0.099 -2.373,0.099c-1.456,0 -2.471,0.012 -3.045,0.035l-0.07,-0.714l0.532,0.034l0.385,0c0.593,-0.699 1.045,-1.402 1.358,-2.106l0.693,0.195Z" style="fill:#231b3d;fill-rule:nonzero;"/><path d="M333.321,222.102l-99.167,0l0,-60.543l2,0l0,58.543l97.167,0l0,2Z" style="fill:#f1d749;fill-rule:nonzero;"/><rect x="0.559" y="84.614" width="180.201" height="2" style="fill:#7b479c;fill-rule:nonzero;"/><rect x="0.566" y="117.358" width="180.194" height="2" style="fill:#3c884b;fill-rule:nonzero;"/><rect x="376.33" y="83.486" width="109.744" height="2" style="fill:#8bc642;fill-rule:nonzero;"/><path d="M219.737,64.667l-108.697,0l0,-14.29l-110.868,0l0,-2l112.868,0l0,14.29l106.697,0l0,2Z" style="fill:#ef8d39;fill-rule:nonzero;"/><path d="M219.737,39.861l-108.52,0l0,-19.568l-110.685,0l0,-2l112.685,0l0,19.568l106.52,0l0,2Z" style="fill:#20b7e0;fill-rule:nonzero;"/><path d="M199.868,147.537l-199.336,0l0,-2l197.336,0l0,-26.526l23.887,0l0,2l-21.887,0l0,26.526Z" style="fill:#ce3135;fill-rule:nonzero;"/><path d="M11.006,36.198l0,-1.367c-0.292,0.61 -0.757,1.135 -1.395,1.572l0.561,0l0.52,-0.478l0.314,0.273Zm0,-1.641l0,-0.437l-1.395,0l1.395,0.437Zm0,7.506l0,-2.297l-1.627,0l0,1.463c0,0.156 0.082,0.233 0.246,0.233l0.315,0c0.182,0 0.373,-0.055 0.574,-0.164l0.492,0.765Zm0,-3.472l0,-1.176l-2.885,0l1.641,0.301l0,1.039l0.437,0l0.493,-0.452l0.314,0.288Zm-2.967,-1.176l-0.93,0l0,1.34l0.93,0l0,-1.34Zm-0.273,-3.295l-0.656,0l0,0.396l0.656,-0.396Zm1.777,0l-1.723,0c0.392,0.374 0.793,0.866 1.204,1.476l-1.19,0.752c-0.401,-1.02 -0.642,-1.599 -0.724,-1.736l0,1.791l1.64,0c0.264,-0.355 0.528,-1.116 0.793,-2.283m-4.389,8.121l0,-1.668l-0.451,0.314l-0.342,-0.847l-0.505,0.15l0,1.285l0.56,-0.396c0.036,0.046 0.282,0.432 0.738,1.162m0,-3.637l0,-2.379c-1.021,1.304 -1.946,2.265 -2.775,2.885l1.49,-0.246l-0.342,-0.615l0.862,-0.629c0.219,0.246 0.473,0.574 0.765,0.984m8.135,-4.853l-0.328,0.41l0,10.021c0,0.848 -0.392,1.272 -1.176,1.272l-1.312,0l0,-0.068c0,-0.703 -0.42,-1.081 -1.258,-1.135l0.041,-0.739l1.477,0.028c0.182,0 0.273,-0.087 0.273,-0.26l0,-0.533c-0.173,0.155 -0.488,0.232 -0.943,0.232l-1.491,0c-0.62,0 -0.929,-0.323 -0.929,-0.97l0,-2.243l-0.533,0l0,5.469l-1.956,0.356l0,-1.368l-0.601,0.452c-0.164,-0.839 -0.397,-1.718 -0.697,-2.639l0,3.199l-1.819,0.356l0,-2.735c-0.437,0.985 -0.82,1.668 -1.148,2.051l-0.889,-0.615c0.337,-0.747 0.656,-1.796 0.957,-3.145l1.08,0.328l0,-0.806c-0.41,0.118 -0.943,0.241 -1.599,0.369l-0.438,-1.777l0.793,-0.042c0.319,-0.328 0.592,-0.647 0.82,-0.957c-0.374,-0.829 -0.893,-1.676 -1.558,-2.543l0.67,-0.806c0.036,0.027 0.1,0.073 0.191,0.137c0.182,0.118 0.301,0.2 0.356,0.246c0.419,-0.957 0.76,-1.955 1.025,-2.994l1.996,0.71c-0.492,0.985 -1.148,2.029 -1.969,3.131l0.479,0.534c0.364,-0.511 0.811,-1.253 1.34,-2.229c0.674,0.328 1.011,0.497 1.011,0.506l0,-2.652l1.956,0.792l3.773,0l0.916,-0.792l1.49,1.449Z" style="fill:#fff;fill-rule:nonzero;"/><path d="M27.289,45.317l-8.299,0l0,-1.025l3.022,0l0,-10.227l-2.721,0l0,-1.025l5.756,0l0.806,-0.739l1.327,1.176l0,0.588l-2.858,0l0,10.227l0.834,0l0.807,-0.739l1.326,1.176l0,0.588Zm-6.412,-5.482l-1.504,1.039c-0.064,-0.283 -0.137,-0.556 -0.219,-0.821c-0.173,0.046 -0.492,0.096 -0.957,0.151l0,1.189l0.615,-0.314c0.547,0.647 1.058,1.399 1.532,2.256l-1.532,0.875c-0.109,-0.711 -0.314,-1.486 -0.615,-2.325l0,3.336l-2.023,0.369l0,-2.775c-0.365,0.875 -0.843,1.682 -1.436,2.42l-0.738,-0.369c0.31,-1.203 0.538,-2.393 0.684,-3.569l1.49,0.424l0,-0.998c-0.41,0.128 -0.935,0.255 -1.573,0.383l-0.601,-1.709c0.291,-0.018 0.597,-0.063 0.916,-0.137c0.428,-0.528 0.733,-0.938 0.916,-1.23c-0.647,-0.829 -1.258,-1.499 -1.832,-2.01l0.656,-0.779c0.173,0.063 0.36,0.159 0.561,0.287c0.401,-0.884 0.729,-1.96 0.984,-3.227l1.969,0.711c-0.648,1.14 -1.372,2.142 -2.174,3.008c0.374,0.255 0.651,0.465 0.834,0.629c0.41,-0.62 0.843,-1.454 1.299,-2.502l1.928,0.943c-0.875,1.441 -2.024,2.812 -3.446,4.116c0.921,-0.019 1.659,-0.082 2.215,-0.192c-0.046,-0.182 -0.164,-0.442 -0.355,-0.779l0.806,-0.547c0.593,0.656 1.126,1.372 1.6,2.147" style="fill:#fff;fill-rule:nonzero;"/><path d="M38.951,39.657l0,-1.367c-0.137,0.255 -0.442,0.61 -0.916,1.066l0,0.301l0.916,0Zm0,-2.27l0,-0.574l-0.916,0l0,1.121c0.118,-0.337 0.214,-0.656 0.287,-0.957l0.629,0.41Zm-2.926,2.27l0,-0.643l-0.451,0.329c-0.146,-0.611 -0.296,-1.099 -0.451,-1.463l0,1.777l0.902,0Zm0,-1.887l0,-0.957l-0.902,0l0,0.588l0.424,-0.301c0.218,0.274 0.378,0.497 0.478,0.67m-1.135,3.227l-1.626,0.328l0,-1.436l-1.04,0.588c-0.173,-0.583 -0.269,-0.893 -0.287,-0.929l-0.287,0.164l0,1.299l0.588,-0.37c0.383,0.465 0.825,1.195 1.326,2.188c0.547,-0.602 0.989,-1.212 1.326,-1.832m6.399,1.681l-0.902,2.202c-0.885,-0.766 -1.668,-1.682 -2.352,-2.748l0,3.089l-2.01,0.37l0,-3.008c-0.593,0.692 -1.645,1.526 -3.158,2.502l-0.697,-0.862c0.437,-0.391 0.843,-0.779 1.217,-1.162l-1.327,0.875c-0.228,-1.285 -0.364,-1.987 -0.41,-2.105l0,3.404l-1.873,0.356l0,-2.557c-0.164,0.602 -0.433,1.222 -0.806,1.859l-0.971,-0.519c0.255,-0.802 0.451,-2.029 0.588,-3.678l1.189,0.315l0,-0.834c-0.273,0.063 -0.765,0.127 -1.476,0.191l-0.301,-1.805l0.902,0.014c0.401,-0.52 0.688,-0.925 0.861,-1.217c-0.264,-0.419 -0.852,-1.057 -1.763,-1.914l0.601,-0.738l0.397,0.205c0.282,-0.73 0.501,-1.6 0.656,-2.611l1.86,0.423c-0.566,1.313 -1.04,2.243 -1.422,2.789l0.546,0.438c0.292,-0.465 0.597,-1.162 0.917,-2.092l1.804,0.998c-0.802,1.304 -1.796,2.521 -2.98,3.651c0.583,-0.055 0.984,-0.096 1.203,-0.123c-0.046,-0.119 -0.16,-0.342 -0.342,-0.67l0.889,-0.561c0.145,0.164 0.524,0.689 1.135,1.572l0,-3.65l1.859,0.725l0.902,0l0,-1.135l-2.967,0l0,-1.026l2.967,0l0,-1.339l2.01,0.396l0,0.943l1.203,0l0.779,-0.738l1.272,1.176l0,0.588l-3.254,0l0,1.135l0.779,0l0.807,-0.725l1.6,1.326l-0.397,0.492l0,3.801l-1.873,0.369l0,-0.383l-0.711,0c0.62,0.675 1.636,1.34 3.049,1.996" style="fill:#fff;fill-rule:nonzero;"/><path d="M52.295,36.239l0,-2.064l-2.229,0c0.72,0.437 1.354,0.893 1.901,1.367l-0.998,1.162c0.155,-0.046 0.597,-0.2 1.326,-0.465m-1.846,0.561c-0.346,-0.648 -0.806,-1.327 -1.381,-2.038l0.575,-0.587l-0.875,0l0,-0.383l-0.52,0.465l0,4.115c0.419,0.109 0.629,0.169 0.629,0.178l-0.547,-1.463c1.221,-0.146 1.928,-0.242 2.119,-0.287m0.93,6.056l-5.592,0l0,0.957l5.592,0l0,-0.957Zm0,-1.9l-5.592,0l0,0.875l5.592,0l0,-0.875Zm-5.482,-4.703l0,-2.078l-2.229,0c0.574,0.346 1.19,0.806 1.846,1.38l-0.998,1.149c0.492,-0.137 0.952,-0.287 1.381,-0.451m9.392,-2.571l-0.642,0.575l0,4.238l-2.352,0.41l0,-1.354c-0.802,0.457 -1.755,0.839 -2.857,1.149l0.998,0.273c-0.429,0.374 -0.935,0.698 -1.518,0.971l2.434,0l1.216,-0.971l1.873,1.641l-0.601,0.643l0,3.869l-2.461,0.41l0,-0.697l-5.592,0l0,0.341l-2.461,0.411l0,-6.522l2.461,0.875l1.176,0c0.255,-0.347 0.483,-0.766 0.684,-1.258l-1.75,0.287l0,-1.38c-0.73,0.41 -1.819,0.897 -3.268,1.462l-0.615,-1.832c0.237,-0.027 0.897,-0.169 1.982,-0.423c-0.347,-0.648 -0.806,-1.327 -1.381,-2.038l0.575,-0.587l-0.916,0l0,-1.026l3.568,0l1.203,-0.848l1.723,1.258l0,-0.41l3.472,0l1.203,-0.848l1.846,1.381Z" style="fill:#fff;fill-rule:nonzero;"/><path d="M69.289,45.317l-13.016,0l0,-1.025l5.633,0l0,-3.569l-4.484,0l0,-1.025l4.484,0l0,-3.363l-2.283,0c-0.62,1.066 -1.422,2.132 -2.406,3.199l-1.217,-0.862c1.13,-2.004 1.864,-3.992 2.201,-5.96l2.639,0.669c-0.21,0.621 -0.451,1.263 -0.725,1.928l1.791,0l0,-3.008l2.365,0.438l0,2.57l2.735,0l0.82,-0.752l1.326,1.162l0,0.616l-4.881,0l0,3.363l2.489,0l0.806,-0.738l1.34,1.162l0,0.601l-4.635,0l0,3.569l2.885,0l0.807,-0.739l1.326,1.162l0,0.602Z" style="fill:#fff;fill-rule:nonzero;"/></svg>